<svg xmlns="http://www.w3.org/2000/svg" width="262" height="40" viewBox="0 0 262 40">
  <g id="Group_143" data-name="Group 143" transform="translate(-96.732 -1034.369)">
    <g id="Group_97" data-name="Group 97" transform="translate(96.732 1034.369)">
      <path id="Path_643" data-name="Path 643" d="M155.218,1073.293a1.048,1.048,0,0,0,.5-.668,15.055,15.055,0,0,0,.41-2.257.944.944,0,0,0-.227-.595.991.991,0,0,0-.725-.339c-2-.13-4.571-.213-6.562-.213-.586,0-1.493,0-2.487.01h-.051a.085.085,0,0,0-.079.054.074.074,0,0,0,.017.083c2.334,2.264,6.141,3.373,8.186,3.969l.182.053A1.061,1.061,0,0,0,155.218,1073.293Z" transform="translate(-115.818 -1047.834)" fill="#3a4161"/>
      <path id="Path_644" data-name="Path 644" d="M156.768,1059.336a.76.76,0,0,0-.739-.585.619.619,0,0,0-.381.1,72.118,72.118,0,0,1-6.8,4.056c-.153.091-.368.378-.322.531a2.858,2.858,0,0,1,.151.769.345.345,0,0,0,.377.386h7.45c.35,0,.764-.6.764-1.1A18.446,18.446,0,0,0,156.768,1059.336Z" transform="translate(-116.797 -1043.788)" fill="#ef8962"/>
      <path id="Path_645" data-name="Path 645" d="M142.6,1064.57a3.982,3.982,0,0,0-5.7,0,2.675,2.675,0,0,0-.748,1.507.284.284,0,0,0,.07.224.269.269,0,0,0,.205.093c1.239,0,5.4,0,6.645,0a.278.278,0,0,0,.208-.093.289.289,0,0,0,.07-.226A2.678,2.678,0,0,0,142.6,1064.57Z" transform="translate(-112.006 -1045.574)" fill="#a9ddc0"/>
      <path id="Path_646" data-name="Path 646" d="M103.257,1079.857c4.2-.8,15.352-2.916,20.143-10.509a.069.069,0,0,0,0-.071.069.069,0,0,0-.063-.039c-.157,0-18.275.2-24.855.63h0a1.247,1.247,0,0,0-.976.459,1.611,1.611,0,0,0-.162,1.335,19.667,19.667,0,0,0,3.082,7.527C101.068,1080.135,102.276,1080.043,103.257,1079.857Z" transform="translate(-96.943 -1047.832)" fill="#3a4161"/>
      <path id="Path_647" data-name="Path 647" d="M120.638,1087.793a20.6,20.6,0,0,0,11.229-3.26,19.548,19.548,0,0,0,7.452-8.945,1.362,1.362,0,0,0,.086-.98,1.072,1.072,0,0,0-.668-.568c-1.549-.449-6.262-1.815-8.984-4.767a.277.277,0,0,0-.206-.092h-1.752a.32.32,0,0,0-.274.157c-4.842,8-16.15,10.885-20.786,11.754a.639.639,0,0,0-.5.447.631.631,0,0,0,.159.641A19.721,19.721,0,0,0,120.638,1087.793Z" transform="translate(-100.403 -1047.793)" fill="#0b2710"/>
      <path id="Path_648" data-name="Path 648" d="M130.631,1037.708a21.331,21.331,0,0,0-11.5-3.339,21,21,0,0,0-9.237,2.121,19.479,19.479,0,0,0-7.213,6.1,1.236,1.236,0,0,0,.293,1.97c3.9,2.815,19.263,8.556,19.417,8.614a.8.8,0,0,0,.933-.211,4.785,4.785,0,0,1,3.346-1.42,4.639,4.639,0,0,1,3.1,1.208c.07.065.3.287.375.371.14.157.424.023.656-.112a47.926,47.926,0,0,0,6.423-3.951,2.077,2.077,0,0,0,.726-2.133A20.1,20.1,0,0,0,130.631,1037.708Z" transform="translate(-98.895 -1034.369)" fill="#d0370a"/>
      <path id="Path_649" data-name="Path 649" d="M97.986,1062h21.95c.127-.009.431-.063.448-.376a2.517,2.517,0,0,1,.1-.5c.131-.374-.066-.463-.257-.55-.032-.015-.062-.029-.09-.043-.137-.05-14.369-5.353-19.663-8.189a2.057,2.057,0,0,0-.94-.285.957.957,0,0,0-.335.057,1.324,1.324,0,0,0-.709.836,23.977,23.977,0,0,0-1.763,7.573,1.617,1.617,0,0,0,.34,1.191A1.228,1.228,0,0,0,97.986,1062Z" transform="translate(-96.732 -1041.199)" fill="#ef8962"/>
    </g>
    <g id="Group_100" data-name="Group 100" transform="translate(145.379 1045.214)">
      <g id="Group_98" data-name="Group 98" transform="translate(0 0)">
        <path id="Path_650" data-name="Path 650" d="M183.861,1059.721c-.118-.362-.185-.411-.688-.411h-2.531c-.42,0-.52.049-.637.395l-.587,1.726a6.171,6.171,0,0,0-.369,1.365c0,.2.084.3.486.329l.553.049a.261.261,0,0,1-.033.411c-.436-.033-.956-.033-1.744-.049-.553,0-1.157.032-1.61.049a.319.319,0,0,1-.034-.411l.554-.049a1.111,1.111,0,0,0,1.006-.806c.3-.756.772-1.825,1.476-3.666l1.71-4.439a2.316,2.316,0,0,0,.285-1.167,1.876,1.876,0,0,0,.872-.625.238.238,0,0,1,.252.148c.218.723.486,1.48.737,2.2l2.3,6.609c.486,1.414.705,1.66,1.425,1.743l.453.049a.318.318,0,0,1,0,.411c-.687-.033-1.274-.049-2.029-.049-.8,0-1.442.032-1.928.049a.272.272,0,0,1-.034-.411l.486-.049c.352-.033.587-.132.587-.3a3.347,3.347,0,0,0-.218-.872Zm-3.32-1.463c-.135.379-.118.395.352.395h2.062c.486,0,.52-.066.369-.51l-.906-2.68a10.732,10.732,0,0,0-.386-1.036H182a10.037,10.037,0,0,0-.4.97Z" transform="translate(-176.606 -1052.144)" fill="#d0370a"/>
        <path id="Path_651" data-name="Path 651" d="M204.025,1063.8a5.312,5.312,0,0,1-2.615-.608,7.458,7.458,0,0,1-.453-2.3c.084-.115.336-.148.4-.049a3.028,3.028,0,0,0,2.884,2.449,1.887,1.887,0,0,0,2.1-1.891,2.459,2.459,0,0,0-1.374-2.3l-1.593-1.02a3.5,3.5,0,0,1-1.811-2.828c0-1.562,1.241-2.827,3.421-2.827a6.574,6.574,0,0,1,1.559.214,2.3,2.3,0,0,0,.587.1,7.066,7.066,0,0,1,.3,2.005c-.067.1-.335.148-.419.049a2.183,2.183,0,0,0-2.28-1.857,1.739,1.739,0,0,0-1.995,1.825,2.587,2.587,0,0,0,1.425,2.022l1.341.822a3.7,3.7,0,0,1,2.1,3.156C207.6,1062.565,206.2,1063.8,204.025,1063.8Z" transform="translate(-186.041 -1052.144)" fill="#d0370a"/>
        <path id="Path_652" data-name="Path 652" d="M222.923,1058.361c-.8,0-.838.032-.838.526v2.318c0,1.727.084,1.957,1.022,2.056l.486.049c.1.066.067.362-.034.411-.905-.033-1.475-.049-2.13-.049-.72,0-1.291.032-1.944.049a.315.315,0,0,1-.034-.411l.285-.049c.939-.165.973-.329.973-2.056v-5.918c0-1.726-.118-2.005-.99-2.072l-.435-.032c-.1-.066-.067-.362.033-.411.822.016,1.392.049,2.113.049.655,0,1.224-.017,1.945-.049.1.049.134.345.034.411l-.319.032c-.971.1-1.005.345-1.005,2.072v1.891c0,.51.034.526.838.526h4.8c.805,0,.839-.016.839-.526v-1.891c0-1.726-.033-1.973-1.023-2.072l-.319-.032c-.1-.066-.067-.362.033-.411.772.032,1.342.049,2.029.049.654,0,1.224-.017,1.978-.049.1.049.134.345.034.411l-.352.032c-.973.1-1.006.345-1.006,2.072v5.918c0,1.727.034,1.94,1.006,2.056l.4.049c.1.066.067.362-.034.411-.8-.033-1.375-.049-2.029-.049-.687,0-1.291.016-2.029.049a.315.315,0,0,1-.033-.411l.319-.049c1.023-.165,1.023-.329,1.023-2.056v-2.318c0-.493-.033-.526-.839-.526Z" transform="translate(-193.119 -1052.279)" fill="#d0370a"/>
        <path id="Path_653" data-name="Path 653" d="M248.782,1055.319c0-1.742-.034-2.022-1.023-2.1l-.42-.032c-.1-.066-.067-.362.034-.411.839.032,1.409.049,2.113.049.671,0,1.241-.017,2.079-.049.1.049.134.345.033.411l-.419.032c-.989.082-1.022.362-1.022,2.1v5.853c0,1.743.034,1.973,1.022,2.088l.419.049c.1.066.067.362-.033.411-.839-.033-1.408-.049-2.079-.049-.7,0-1.274.016-2.113.049a.315.315,0,0,1-.034-.411l.42-.049c.989-.115,1.023-.345,1.023-2.088Z" transform="translate(-203.99 -1052.279)" fill="#d0370a"/>
        <path id="Path_654" data-name="Path 654" d="M268.239,1055.987c.872-1.217,1.359-1.841,1.626-2.335a1.054,1.054,0,0,0,.2-.443c0-.082-.167-.132-.6-.132h-2.5c-1.342,0-2.1.115-2.5.543a4.606,4.606,0,0,0-.737,1.118.336.336,0,0,1-.42-.115,24.549,24.549,0,0,0,.687-2.466.3.3,0,0,1,.285,0c.05.395.3.411,1.66.411h4.426a17.918,17.918,0,0,0,1.929-.049.143.143,0,0,1,.1.147,32.979,32.979,0,0,0-2.75,3.518l-2.767,3.913a21.21,21.21,0,0,0-1.66,2.548c0,.164.168.2.47.23.436.033,1.308.033,2.481.033a8.23,8.23,0,0,0,3.1-.379,3.185,3.185,0,0,0,1.174-1.512c.151-.049.369-.033.419.115a9.163,9.163,0,0,1-.755,2.334c-.922-.033-1.877-.049-3.051-.049h-4.31c-.889,0-1.492.033-1.878.049a.2.2,0,0,1-.084-.2,21.112,21.112,0,0,0,1.828-2.236Z" transform="translate(-210 -1052.027)" fill="#d0370a"/>
        <path id="Path_655" data-name="Path 655" d="M295,1056.947a11.612,11.612,0,0,0-.319-3.4,1.047,1.047,0,0,0-.838-.345l-.42-.033a.292.292,0,0,1,.034-.394c.637.032,1.257.049,1.912.049.7,0,1.157-.017,1.76-.049a.28.28,0,0,1,.034.394l-.4.033a.988.988,0,0,0-.838.395,14.392,14.392,0,0,0-.235,3.354v1.858a5.643,5.643,0,0,1-1.174,3.929,4.462,4.462,0,0,1-3.2,1.2,4.831,4.831,0,0,1-3.135-.9c-.889-.723-1.308-1.924-1.308-3.88v-3.88c0-1.71-.034-1.989-1.006-2.072l-.419-.033c-.1-.065-.067-.345.033-.394.839.032,1.409.049,2.079.049.687,0,1.24-.017,2.062-.049.1.049.134.329.034.394l-.4.033c-.973.083-1.006.362-1.006,2.072v3.551c0,2.647.839,4.389,3.4,4.389,2.43,0,3.353-1.874,3.353-4.373Z" transform="translate(-218.754 -1052.279)" fill="#d0370a"/>
        <path id="Path_656" data-name="Path 656" d="M312.431,1055.3c0-1.562-.05-1.841-.737-1.923l-.537-.066a.27.27,0,0,1,.017-.41c.938-.083,2.1-.132,3.739-.132a6.039,6.039,0,0,1,2.8.492,2.445,2.445,0,0,1,1.392,2.3,3.053,3.053,0,0,1-2.1,2.746c-.085.1,0,.263.084.394a17.765,17.765,0,0,0,3.37,4.373,2.031,2.031,0,0,0,1.156.46.137.137,0,0,1,.017.23,2.675,2.675,0,0,1-.737.082c-1.426,0-2.28-.411-3.471-2.071-.436-.608-1.123-1.743-1.643-2.483a1.2,1.2,0,0,0-1.19-.526c-.755,0-.788.016-.788.361v2.072c0,1.727.034,1.924,1.006,2.056l.352.049a.317.317,0,0,1-.033.411c-.755-.033-1.325-.049-2-.049-.7,0-1.308.016-2.1.049a.313.313,0,0,1-.034-.411l.42-.049c.973-.115,1.006-.329,1.006-2.056Zm1.375,2.351a1.259,1.259,0,0,0,.051.543c.05.049.3.082,1.156.082a2.858,2.858,0,0,0,1.727-.427,2.34,2.34,0,0,0,.839-2.039,2.446,2.446,0,0,0-2.683-2.531c-1.039,0-1.09.065-1.09.526Z" transform="translate(-228.66 -1052.279)" fill="#d0370a"/>
        <path id="Path_657" data-name="Path 657" d="M335.549,1055.319c0-1.742-.033-2.022-1.023-2.1l-.419-.032c-.1-.066-.067-.362.033-.411.839.032,1.409.049,2.113.049.671,0,1.241-.017,2.079-.049.1.049.134.345.034.411l-.42.032c-.989.082-1.022.362-1.022,2.1v5.853c0,1.743.034,1.973,1.022,2.088l.42.049c.1.066.067.362-.034.411-.838-.033-1.408-.049-2.079-.049-.7,0-1.274.016-2.113.049a.315.315,0,0,1-.033-.411l.419-.049c.99-.115,1.023-.345,1.023-2.088Z" transform="translate(-237.611 -1052.279)" fill="#d0370a"/>
        <path id="Path_658" data-name="Path 658" d="M366.285,1060.893c0,1.727.033,1.973,1.005,2.056l.537.049c.1.065.067.362-.034.411-.955-.033-1.526-.049-2.2-.049s-1.257.016-2.331.049a.283.283,0,0,1,0-.411l.6-.049c.956-.083,1.039-.329,1.039-2.056v-7.348c0-.51,0-.526-.5-.526h-.922a3.494,3.494,0,0,0-2.062.411,3,3,0,0,0-.754,1.135.328.328,0,0,1-.436-.115,17.04,17.04,0,0,0,.637-2.449.426.426,0,0,1,.318,0c.1.526.654.509,1.425.509h6.79c.906,0,1.057-.033,1.308-.46.084-.033.268-.017.3.049a9.8,9.8,0,0,0-.251,2.5c-.067.132-.352.132-.436.033-.05-.411-.167-1.019-.419-1.2a3.4,3.4,0,0,0-1.945-.411H366.77c-.5,0-.486.017-.486.559Z" transform="translate(-247.757 -1051.968)" fill="#d0370a"/>
        <path id="Path_659" data-name="Path 659" d="M388.9,1058.361c-.8,0-.838.032-.838.526v2.318c0,1.727.084,1.957,1.022,2.056l.486.049c.1.066.068.362-.033.411-.905-.033-1.476-.049-2.13-.049-.721,0-1.291.032-1.945.049a.314.314,0,0,1-.034-.411l.285-.049c.94-.165.973-.329.973-2.056v-5.918c0-1.726-.117-2.005-.989-2.072l-.436-.032c-.1-.066-.067-.362.034-.411.822.016,1.392.049,2.113.049.654,0,1.224-.017,1.945-.049.1.049.134.345.033.411l-.319.032c-.972.1-1.006.345-1.006,2.072v1.891c0,.51.034.526.838.526h4.8c.8,0,.839-.016.839-.526v-1.891c0-1.726-.034-1.973-1.023-2.072l-.319-.032c-.1-.066-.067-.362.034-.411.772.032,1.341.049,2.029.049.654,0,1.224-.017,1.979-.049.1.049.134.345.034.411l-.353.032c-.972.1-1.006.345-1.006,2.072v5.918c0,1.727.034,1.94,1.006,2.056l.4.049c.1.066.067.362-.034.411-.8-.033-1.375-.049-2.029-.049-.687,0-1.291.016-2.029.049a.315.315,0,0,1-.034-.411l.319-.049c1.023-.165,1.023-.329,1.023-2.056v-2.318c0-.493-.034-.526-.839-.526Z" transform="translate(-257.433 -1052.279)" fill="#d0370a"/>
        <path id="Path_660" data-name="Path 660" d="M414.119,1055.286c0-1.709-.033-1.956-1.023-2.072l-.268-.032c-.1-.066-.067-.362.034-.411.72.032,1.291.049,1.978.049h3.153c1.073,0,2.062,0,2.263-.049a17.969,17.969,0,0,1,.268,2.186.335.335,0,0,1-.419.033c-.251-.773-.4-1.348-1.274-1.562a8.168,8.168,0,0,0-1.627-.1H416c-.5,0-.5.033-.5.658v3.288c0,.46.05.46.554.46h.972a6.342,6.342,0,0,0,1.425-.1c.2-.065.318-.165.4-.575l.134-.674a.338.338,0,0,1,.436.016c0,.4-.067,1.036-.067,1.661,0,.592.067,1.217.067,1.578a.336.336,0,0,1-.436.017l-.151-.641a.707.707,0,0,0-.52-.625,5.736,5.736,0,0,0-1.291-.082h-.972c-.5,0-.554.016-.554.443v2.318c0,.872.05,1.431.318,1.71.2.2.553.379,2.029.379a5,5,0,0,0,2.146-.247,4.139,4.139,0,0,0,1.191-1.594.311.311,0,0,1,.419.115,14.146,14.146,0,0,1-.754,2.285c-1.509-.033-3-.049-4.494-.049H414.84c-.721,0-1.291.016-2.28.049a.315.315,0,0,1-.033-.411l.553-.049c.956-.083,1.039-.329,1.039-2.056Z" transform="translate(-267.997 -1052.279)" fill="#d0370a"/>
        <path id="Path_661" data-name="Path 661" d="M436.232,1055.3c0-1.562-.05-1.841-.737-1.923l-.537-.066a.27.27,0,0,1,.017-.41c.939-.083,2.1-.132,3.739-.132a6.04,6.04,0,0,1,2.8.492,2.445,2.445,0,0,1,1.392,2.3,3.053,3.053,0,0,1-2.1,2.746c-.085.1,0,.263.084.394a17.78,17.78,0,0,0,3.37,4.373,2.033,2.033,0,0,0,1.157.46.136.136,0,0,1,.017.23,2.672,2.672,0,0,1-.737.082c-1.425,0-2.28-.411-3.471-2.071-.436-.608-1.123-1.743-1.643-2.483a1.205,1.205,0,0,0-1.191-.526c-.754,0-.788.016-.788.361v2.072c0,1.727.034,1.924,1.006,2.056l.352.049a.317.317,0,0,1-.034.411c-.754-.033-1.324-.049-1.995-.049-.7,0-1.308.016-2.1.049a.313.313,0,0,1-.034-.411l.42-.049c.972-.115,1.006-.329,1.006-2.056Zm1.375,2.351a1.273,1.273,0,0,0,.05.543c.05.049.3.082,1.157.082a2.858,2.858,0,0,0,1.727-.427,2.339,2.339,0,0,0,.839-2.039,2.445,2.445,0,0,0-2.682-2.531c-1.04,0-1.09.065-1.09.526Z" transform="translate(-276.63 -1052.279)" fill="#d0370a"/>
        <path id="Path_662" data-name="Path 662" d="M464.126,1059.281c.386.772.755,1.529,1.157,2.252h.034c.453-.773.872-1.628,1.291-2.466l1.576-3.14a9.508,9.508,0,0,0,1.275-3.156c.57.049.922.049,1.257.049.42,0,.973-.017,1.493-.049a.341.341,0,0,1,.017.411l-.352.032c-1.057.1-1.191.411-1.174,1.562.034,1.742.051,4.784.185,7.152.05.822.033,1.266.821,1.332l.537.049a.3.3,0,0,1-.033.411c-.687-.033-1.374-.049-1.978-.049-.587,0-1.341.016-2.029.049a.3.3,0,0,1-.034-.411l.486-.049c.821-.083.821-.345.821-1.4l-.05-6.855h-.034c-.117.181-.754,1.5-1.09,2.137l-1.493,2.877c-.754,1.447-1.509,2.992-1.811,3.749a.2.2,0,0,1-.168.065.206.206,0,0,1-.151-.065c-.285-.872-1.09-2.483-1.476-3.288l-1.509-3.173c-.352-.756-.705-1.612-1.073-2.367h-.034c-.067,1.019-.118,1.972-.168,2.926-.05,1-.118,2.466-.118,3.864,0,1.217.1,1.479.755,1.529l.638.049c.117.1.1.362-.017.411-.57-.033-1.224-.049-1.861-.049-.537,0-1.14.016-1.71.049a.321.321,0,0,1-.033-.411l.369-.049c.7-.1.938-.2,1.039-1.348.1-1.085.185-1.99.285-3.617.084-1.365.151-2.762.184-3.666.034-1.036-.1-1.283-1.123-1.414l-.268-.032a.3.3,0,0,1,.067-.411c.5.032.905.049,1.324.049.386,0,.839,0,1.392-.049a6.19,6.19,0,0,0,.872,2.712Z" transform="translate(-285.645 -1052.279)" fill="#d0370a"/>
        <path id="Path_663" data-name="Path 663" d="M493.787,1059.721c-.118-.362-.184-.411-.688-.411h-2.532c-.419,0-.519.049-.637.395l-.587,1.726a6.192,6.192,0,0,0-.368,1.365c0,.2.084.3.486.329l.553.049a.262.262,0,0,1-.034.411c-.436-.033-.956-.033-1.744-.049-.554,0-1.157.032-1.61.049a.319.319,0,0,1-.034-.411l.553-.049a1.111,1.111,0,0,0,1.006-.806c.3-.756.772-1.825,1.476-3.666l1.71-4.439a2.317,2.317,0,0,0,.285-1.167,1.88,1.88,0,0,0,.872-.625.239.239,0,0,1,.252.148c.217.723.486,1.48.737,2.2l2.3,6.609c.486,1.414.7,1.66,1.425,1.743l.453.049a.318.318,0,0,1,0,.411c-.688-.033-1.275-.049-2.029-.049-.8,0-1.442.032-1.928.049a.272.272,0,0,1-.034-.411l.486-.049c.352-.033.587-.132.587-.3a3.322,3.322,0,0,0-.218-.872Zm-3.32-1.463c-.134.379-.118.395.352.395h2.062c.486,0,.519-.066.369-.51l-.905-2.68a10.553,10.553,0,0,0-.386-1.036h-.034a10.142,10.142,0,0,0-.4.97Z" transform="translate(-296.696 -1052.144)" fill="#d0370a"/>
        <path id="Path_664" data-name="Path 664" d="M511.671,1055.286c0-1.709-.034-1.956-1.023-2.072l-.268-.032c-.1-.066-.068-.362.033-.411.721.032,1.291.049,1.978.049h3.152c1.073,0,2.063,0,2.264-.049a17.976,17.976,0,0,1,.268,2.186.335.335,0,0,1-.419.033c-.252-.773-.4-1.348-1.275-1.562a8.165,8.165,0,0,0-1.626-.1h-1.207c-.5,0-.5.033-.5.658v3.288c0,.46.05.46.554.46h.971a6.348,6.348,0,0,0,1.426-.1c.2-.065.318-.165.4-.575l.134-.674a.337.337,0,0,1,.435.016c0,.4-.067,1.036-.067,1.661,0,.592.067,1.217.067,1.578a.335.335,0,0,1-.435.017l-.151-.641a.706.706,0,0,0-.519-.625,5.739,5.739,0,0,0-1.292-.082H513.6c-.5,0-.554.016-.554.443v2.318c0,.872.05,1.431.319,1.71.2.2.553.379,2.029.379a5,5,0,0,0,2.146-.247,4.133,4.133,0,0,0,1.19-1.594.312.312,0,0,1,.42.115,14.149,14.149,0,0,1-.754,2.285c-1.509-.033-3-.049-4.494-.049h-1.509c-.721,0-1.291.016-2.28.049a.315.315,0,0,1-.034-.411l.554-.049c.956-.083,1.039-.329,1.039-2.056Z" transform="translate(-305.796 -1052.279)" fill="#d0370a"/>
      </g>
      <g id="Group_99" data-name="Group 99" transform="translate(70.635 18.864)">
        <path id="Path_665" data-name="Path 665" d="M295.13,1089.2a4.908,4.908,0,0,1-1.868,2.165.6.6,0,0,1-.26.116.113.113,0,0,1-.111-.126c0-.029.01-.087.1-.154a5.281,5.281,0,0,0,1.719-2.29,6.578,6.578,0,0,0,.483-2.32c0-.183,0-.328-.093-.386a.827.827,0,0,0-.4-.107c-.056,0-.083-.029-.083-.068a.22.22,0,0,1,.111-.164.551.551,0,0,1,.3-.077,1.618,1.618,0,0,1,.632.116c.149.058.2.135.2.261a.825.825,0,0,1-.056.184,2.319,2.319,0,0,0-.037.318,10.84,10.84,0,0,0,1.839-1.584c.066-.068.047-.126-.074-.126-.1,0-1.115.068-1.978.164-.66.078-1.4.155-2.016.271a1.733,1.733,0,0,0-.511.145.377.377,0,0,1-.26.077,1.134,1.134,0,0,1-.632-.445.831.831,0,0,1-.214-.464c0-.087.028-.184.084-.184s.092.048.158.116a.876.876,0,0,0,.641.31c.2,0,.492-.02.864-.058,1.393-.136,2.239-.213,3.521-.309.279-.02.344-.039.418-.116a.245.245,0,0,1,.158-.078,1.067,1.067,0,0,1,.521.309.833.833,0,0,1,.315.493c0,.116-.093.194-.223.213a.925.925,0,0,0-.511.2,16.546,16.546,0,0,1-2.136,1.411A6.851,6.851,0,0,1,295.13,1089.2Z" transform="translate(-291.925 -1083.396)" fill="#d0370a"/>
        <path id="Path_666" data-name="Path 666" d="M310.518,1086.932c0-.057.037-.1.139-.1a2.428,2.428,0,0,1,.873.222c.4.184.66.406.66.687s-.148.386-.325.386c-.121,0-.251-.116-.363-.281a2.556,2.556,0,0,0-.892-.782A.156.156,0,0,1,310.518,1086.932Zm1.691,3.208a18.845,18.845,0,0,0,2.731-1.865,18.546,18.546,0,0,0,1.932-1.807c.092-.106.158-.184.195-.184a.151.151,0,0,1,.14.125c0,.039-.009.068-.1.2a11.576,11.576,0,0,1-1.951,2.107,22.757,22.757,0,0,1-2.676,2.011.583.583,0,0,0-.186.183.382.382,0,0,1-.279.194c-.148,0-.353-.165-.548-.377a1.16,1.16,0,0,1-.353-.725c0-.135.018-.251.092-.251.056,0,.1.048.158.145.092.155.325.387.465.387A.751.751,0,0,0,312.209,1090.141Zm-.53-5.18c0-.058.037-.1.14-.1a2.319,2.319,0,0,1,.9.309c.381.223.557.426.557.7a.345.345,0,0,1-.334.368.376.376,0,0,1-.288-.2,3.31,3.31,0,0,0-.9-.957A.145.145,0,0,1,311.679,1084.961Z" transform="translate(-299.129 -1083.579)" fill="#d0370a"/>
        <path id="Path_667" data-name="Path 667" d="M334.095,1088.8a1.485,1.485,0,0,1,.437.763c0,.251-.14.358-.27.358-.158,0-.26-.068-.391-.261a6.292,6.292,0,0,0-2.313-2.127,10.191,10.191,0,0,1-3.512,2.571.633.633,0,0,1-.251.077.105.105,0,0,1-.111-.1.12.12,0,0,1,.075-.125,12.776,12.776,0,0,0,3.094-2.406,11.383,11.383,0,0,0,1.681-2.368c.037-.067.046-.086.046-.106s-.028-.02-.046-.02a22.268,22.268,0,0,0-2.555.367.865.865,0,0,0-.316.107.388.388,0,0,1-.233.067c-.167,0-.361-.107-.64-.406a.84.84,0,0,1-.233-.513c0-.1.047-.145.083-.145s.084.039.121.077a1.059,1.059,0,0,0,.7.367c.1,0,.492-.038.706-.058.706-.077,1.514-.164,2.127-.232a.643.643,0,0,0,.363-.164.291.291,0,0,1,.176-.106.843.843,0,0,1,.455.222c.167.126.26.222.26.367,0,.1-.093.155-.233.213a.453.453,0,0,0-.287.26,17.767,17.767,0,0,1-1.254,1.817A7.115,7.115,0,0,1,334.095,1088.8Zm-.576-5.422a2.227,2.227,0,0,1,.687.386,1,1,0,0,1,.4.628c0,.173-.093.28-.232.28s-.186-.077-.307-.318a2.747,2.747,0,0,0-.687-.783.131.131,0,0,1-.056-.1.105.105,0,0,1,.1-.107A.3.3,0,0,1,333.518,1083.375Zm.837-.579a2.334,2.334,0,0,1,.66.318.9.9,0,0,1,.418.619.239.239,0,0,1-.214.261c-.111,0-.176-.039-.306-.261a2.411,2.411,0,0,0-.762-.774.127.127,0,0,1-.037-.1.1.1,0,0,1,.093-.1A.589.589,0,0,1,334.355,1082.8Z" transform="translate(-305.781 -1082.766)" fill="#d0370a"/>
        <path id="Path_668" data-name="Path 668" d="M351.538,1083.938a.97.97,0,0,0-.465-.231c-.074-.02-.121-.049-.121-.126,0-.1.176-.183.344-.183a2.09,2.09,0,0,1,.66.193c.251.116.455.251.455.445a.286.286,0,0,1-.084.193c-.055.058-.092.155-.1.483-.018.976-.018,1.817-.093,2.532a4.538,4.538,0,0,1-.65,2.078,4.881,4.881,0,0,1-2.806,1.933,1.166,1.166,0,0,1-.176.029.126.126,0,0,1-.13-.116.125.125,0,0,1,.093-.126,5.159,5.159,0,0,0,2.666-2.126,4.849,4.849,0,0,0,.483-1.923c.056-.744.056-1.614.047-2.581C351.659,1084.122,351.64,1084.055,351.538,1083.938Zm-2.4.561a.766.766,0,0,0-.363-.281c-.093-.039-.121-.048-.121-.106,0-.1.149-.175.223-.175a1.285,1.285,0,0,1,.65.261c.241.164.39.28.39.445a.272.272,0,0,1-.093.193c-.047.048-.083.145-.093.426-.018.58-.028,1.546-.028,2.7,0,.319-.1.4-.214.4s-.195-.077-.279-.232a1.065,1.065,0,0,1-.111-.474.775.775,0,0,1,.037-.251,1.179,1.179,0,0,0,.046-.29c.028-.783.037-1.46.037-2.078C349.224,1084.693,349.215,1084.605,349.141,1084.5Z" transform="translate(-313.796 -1083.011)" fill="#d0370a"/>
        <path id="Path_669" data-name="Path 669" d="M366.05,1087.037a1.413,1.413,0,0,0-.483.136.42.42,0,0,1-.232.067.9.9,0,0,1-.538-.29.82.82,0,0,1-.306-.483c0-.116.037-.164.074-.164a.146.146,0,0,1,.083.038,1.065,1.065,0,0,0,.632.319,4.16,4.16,0,0,0,.455-.029c.771-.087,1.412-.144,2.276-.222.752-.068,1.347-.116,2.091-.184a.9.9,0,0,0,.4-.1.458.458,0,0,1,.25-.1,1.461,1.461,0,0,1,.622.2c.159.1.223.183.223.309a.189.189,0,0,1-.214.2c-.213,0-.409-.039-.668-.048-.316-.009-.651-.009-.966,0-.447.01-.976.039-1.4.068.252.155.418.318.418.435a.245.245,0,0,1-.056.155.486.486,0,0,0-.111.2,6.146,6.146,0,0,1-.957,2.106,6.3,6.3,0,0,1-1.793,1.691.341.341,0,0,1-.176.058.115.115,0,0,1-.1-.116c0-.058.02-.087.094-.145a6.929,6.929,0,0,0,1.561-1.769,6.551,6.551,0,0,0,.79-1.913,1.064,1.064,0,0,0,.037-.29.535.535,0,0,0-.158-.377C367.286,1086.854,366.626,1086.931,366.05,1087.037Zm1.412-2.474c.4-.038.873-.1,1.273-.164a2.185,2.185,0,0,0,.52-.126.859.859,0,0,1,.334-.087.76.76,0,0,1,.409.1c.157.106.2.184.2.29,0,.135-.1.2-.279.222-.79.078-1.757.155-2.63.222a5.9,5.9,0,0,1-.595.039.8.8,0,0,1-.6-.222c-.2-.174-.334-.328-.334-.464,0-.068.046-.135.1-.135s.065.029.121.077a1.1,1.1,0,0,0,.706.29C366.942,1084.6,367.314,1084.573,367.463,1084.563Z" transform="translate(-320.042 -1083.316)" fill="#d0370a"/>
        <path id="Path_670" data-name="Path 670" d="M384.119,1086.691a1.307,1.307,0,0,0-.315-.2c-.083-.038-.121-.058-.121-.115s.094-.146.214-.146a1.454,1.454,0,0,1,.743.3c.167.116.363.3.363.493a.271.271,0,0,1-.111.213.605.605,0,0,0-.167.348,6.478,6.478,0,0,1-.9,1.9,5.773,5.773,0,0,1-1.5,1.5.285.285,0,0,1-.149.058c-.046,0-.111-.029-.111-.077a.145.145,0,0,1,.065-.135,6.457,6.457,0,0,0,1.273-1.566,6.77,6.77,0,0,0,.734-1.73,2.628,2.628,0,0,0,.093-.551A.332.332,0,0,0,384.119,1086.691Zm1.7-.753c-.056-.146-.2-.232-.456-.339-.047-.019-.083-.039-.083-.087,0-.078.121-.174.279-.174a1.426,1.426,0,0,1,.669.261c.2.126.353.251.353.416a.328.328,0,0,1-.1.222.616.616,0,0,0-.083.348c-.028.938-.056,1.913-.056,3.015,0,.048.01.077.047.077a.316.316,0,0,0,.121-.038,14.211,14.211,0,0,0,3.307-2.165c.047-.038.074-.067.121-.067a.13.13,0,0,1,.121.116.18.18,0,0,1-.047.106,12.712,12.712,0,0,1-3.241,2.6.5.5,0,0,0-.2.2.209.209,0,0,1-.186.126c-.111,0-.279-.164-.381-.28a.742.742,0,0,1-.222-.416.5.5,0,0,1,.046-.155.747.747,0,0,0,.037-.261c.009-.947.009-2.068.009-2.9A1.727,1.727,0,0,0,385.819,1085.938Z" transform="translate(-326.853 -1083.763)" fill="#d0370a"/>
        <path id="Path_671" data-name="Path 671" d="M405.738,1085.078a1.182,1.182,0,0,0,.121-.464c0-.174-.157-.318-.538-.483-.075-.029-.111-.048-.111-.1,0-.077.1-.165.288-.165a1.554,1.554,0,0,1,.789.29c.288.2.465.368.465.561a.275.275,0,0,1-.186.251.854.854,0,0,0-.27.368c-.279.57-.567,1.13-.929,1.788a5.332,5.332,0,0,1,.743.734,1.155,1.155,0,0,1,.344.725.294.294,0,0,1-.288.318c-.1,0-.195-.048-.315-.251a5.444,5.444,0,0,0-.78-1.044,10.453,10.453,0,0,1-3.725,3.479.336.336,0,0,1-.186.049c-.056,0-.121-.02-.121-.126a.162.162,0,0,1,.084-.126,11.115,11.115,0,0,0,3.539-3.643,10.345,10.345,0,0,0-1.4-.966c-.111-.068-.139-.107-.139-.164a.1.1,0,0,1,.111-.1.753.753,0,0,1,.2.048,9.172,9.172,0,0,1,1.5.744A18.573,18.573,0,0,0,405.738,1085.078Z" transform="translate(-334.204 -1083.194)" fill="#d0370a"/>
      </g>
    </g>
  </g>
</svg>
