<svg xmlns="http://www.w3.org/2000/svg" width="400.16" height="61.303" viewBox="0 0 400.16 61.303">
  <g id="レイヤー_1" data-name="レイヤー 1" transform="translate(-441.167 -2298.197)">
    <g id="Group_62" data-name="Group 62" transform="translate(441.327 2298.359)">
      <path id="Path_385" data-name="Path 385" d="M1134.263,1592.076a30.518,30.518,0,1,0-33.193,33.161q1.379.123,2.75.123a30.546,30.546,0,0,0,30.443-33.283Zm-23.664,1.258a5.889,5.889,0,0,1,8.431,0,3.974,3.974,0,0,1,1.11,2.235.486.486,0,0,1-.479.548c-1.813,0-7.887,0-9.7,0a.483.483,0,0,1-.476-.544A3.973,3.973,0,0,1,1110.6,1593.334Zm19.7-6.125c-2.759,2.337-9.382,5.766-9.382,5.766-.324.188-.8.43-1.049.149-.109-.122-.446-.445-.543-.535a6.677,6.677,0,0,0-4.474-1.742,6.888,6.888,0,0,0-4.83,2.049,1.239,1.239,0,0,1-1.439.324s-22.588-8.409-28.347-12.565a1.872,1.872,0,0,1-.445-2.975,29.344,29.344,0,0,1,24.062-12.013,31.066,31.066,0,0,1,16.82,4.88,29.406,29.406,0,0,1,10.708,13.468A3.1,3.1,0,0,1,1130.3,1587.21Zm-21.24,7.566a3.7,3.7,0,0,0-.148.709c-.03.575-.659.614-.728.618H1076.2c-1.35.01-1.939-.6-1.938-2.23,0-3.493,1.347-7.867,2.578-11.065.56-1.453,1.574-1.685,3-.922,7.808,4.179,28.687,11.936,28.687,11.936C1108.8,1593.969,1109.312,1594.068,1109.064,1594.776Zm-32.488,2.941c9.515-.624,36-.918,36.268-.919a.178.178,0,0,1,.156.095.175.175,0,0,1,0,.179c-7.007,11.095-23.3,14.187-29.438,15.352-1.453.274-3.244.411-4.2-1-2.735-4.03-3.544-6.954-4.508-11C1074.525,1599.074,1074.937,1597.824,1076.576,1597.717Zm6.2,17.1a1,1,0,0,1,.785-.7c6.756-1.265,23.23-5.463,30.278-17.1a.54.54,0,0,1,.464-.265h2.556a.478.478,0,0,1,.355.158c3.684,3.991,9.832,5.988,13.073,6.927a1.637,1.637,0,0,1,1.022.865,2.07,2.07,0,0,1-.124,1.49,30.118,30.118,0,0,1-48.158,9.632A.989.989,0,0,1,1082.771,1614.813Zm47.537-11.883c-2.991-.871-8.557-2.493-11.975-5.8a.179.179,0,0,1-.04-.2.2.2,0,0,1,.184-.125c.037,0,1.579-.015,3.7-.015,3.079,0,6.877.135,9.579.31a1.474,1.474,0,0,1,1.458,1.444,22.013,22.013,0,0,1-.6,3.3,1.6,1.6,0,0,1-.76,1.022,1.622,1.622,0,0,1-1.282.15Zm1.951-6.826h-10.869a.578.578,0,0,1-.625-.636,3.987,3.987,0,0,0-.217-1.1c-.085-.275.275-.724.5-.861a104.7,104.7,0,0,0,9.918-5.906.987.987,0,0,1,.6-.167,1.178,1.178,0,0,1,.465.1,1.159,1.159,0,0,1,.685.814,26.948,26.948,0,0,1,.727,6.078C1133.449,1595.208,1132.816,1596.1,1132.259,1596.1Z" transform="translate(-1073.327 -1564.359)" fill="#fff" stroke="#fff" stroke-miterlimit="10" stroke-width="0.283"/>
      <g id="Group_60" data-name="Group 60" transform="translate(73.787 15.44)">
        <path id="Path_386" data-name="Path 386" d="M1163.857,1592.482c-.179-.554-.282-.628-1.052-.628h-3.87c-.642,0-.795.075-.975.6l-.9,2.639a9.46,9.46,0,0,0-.563,2.086c0,.3.128.452.744.5l.845.075a.4.4,0,0,1-.051.628c-.666-.051-1.461-.051-2.667-.075-.845,0-1.769.05-2.461.075a.487.487,0,0,1-.052-.628l.847-.075a1.7,1.7,0,0,0,1.538-1.232c.462-1.156,1.18-2.79,2.256-5.605l2.615-6.787a3.544,3.544,0,0,0,.437-1.784,2.873,2.873,0,0,0,1.333-.955.365.365,0,0,1,.385.226c.333,1.106.744,2.263,1.127,3.369l3.512,10.105c.744,2.161,1.078,2.538,2.179,2.664l.693.075a.487.487,0,0,1,0,.628c-1.051-.051-1.948-.075-3.1-.075-1.23,0-2.2.05-2.947.075a.415.415,0,0,1-.052-.628l.743-.075c.539-.051.9-.2.9-.453a5.089,5.089,0,0,0-.334-1.332Zm-5.076-2.237c-.205.578-.18.6.539.6h3.153c.744,0,.794-.1.564-.779l-1.384-4.1a16.284,16.284,0,0,0-.59-1.583h-.052a15.162,15.162,0,0,0-.615,1.483Z" transform="translate(-1152.766 -1580.896)" fill="#fff"/>
        <path id="Path_387" data-name="Path 387" d="M1181.808,1598.715a8.131,8.131,0,0,1-4-.93,11.438,11.438,0,0,1-.692-3.52c.128-.175.513-.226.615-.075.385,1.282,1.437,3.745,4.409,3.745a2.886,2.886,0,0,0,3.2-2.89,3.76,3.76,0,0,0-2.1-3.519l-2.435-1.558a5.352,5.352,0,0,1-2.769-4.324c0-2.387,1.9-4.323,5.23-4.323a10.041,10.041,0,0,1,2.384.327,3.529,3.529,0,0,0,.9.151,10.771,10.771,0,0,1,.462,3.066c-.1.152-.512.227-.641.075a3.338,3.338,0,0,0-3.488-2.84c-2.512,0-3.049,1.633-3.049,2.79a3.958,3.958,0,0,0,2.178,3.092l2.051,1.256c1.615.981,3.2,2.439,3.2,4.827C1187.269,1596.83,1185.141,1598.715,1181.808,1598.715Z" transform="translate(-1154.312 -1580.896)" fill="#fff"/>
        <path id="Path_388" data-name="Path 388" d="M1201.04,1590.217c-1.23,0-1.281.051-1.281.8v3.544c0,2.64.127,2.992,1.563,3.143l.744.075c.155.1.1.553-.051.628-1.384-.051-2.255-.075-3.256-.075-1.1,0-1.973.05-2.972.075a.479.479,0,0,1-.052-.628l.436-.075c1.436-.252,1.487-.5,1.487-3.143v-9.049c0-2.639-.18-3.066-1.514-3.167l-.667-.05c-.154-.1-.1-.553.052-.628,1.257.024,2.129.075,3.23.075,1,0,1.872-.024,2.974-.075.154.075.205.527.052.628l-.488.05c-1.486.152-1.537.528-1.537,3.167v2.891c0,.779.051.8,1.281.8h7.332c1.231,0,1.282-.025,1.282-.8v-2.891c0-2.639-.051-3.016-1.564-3.167l-.487-.05c-.154-.1-.1-.553.051-.628,1.18.051,2.052.075,3.1.075,1,0,1.871-.024,3.025-.075.154.075.205.527.052.628l-.538.05c-1.487.152-1.539.528-1.539,3.167v9.049c0,2.64.052,2.967,1.539,3.143l.615.075c.154.1.1.553-.052.628-1.231-.051-2.1-.075-3.1-.075-1.051,0-1.974.024-3.1.075a.482.482,0,0,1-.051-.628l.487-.075c1.564-.252,1.564-.5,1.564-3.143v-3.544c0-.753-.051-.8-1.282-.8Z" transform="translate(-1155.471 -1580.918)" fill="#fff"/>
        <path id="Path_389" data-name="Path 389" d="M1225.737,1585.566c0-2.664-.052-3.092-1.564-3.218l-.642-.05c-.154-.1-.1-.553.052-.628,1.282.051,2.154.075,3.23.075,1.026,0,1.9-.024,3.18-.075.154.075.2.527.051.628l-.641.05c-1.513.125-1.563.553-1.563,3.218v8.949c0,2.664.051,3.017,1.563,3.193l.641.075c.154.1.1.553-.051.628-1.282-.051-2.153-.075-3.18-.075-1.076,0-1.948.024-3.23.075a.482.482,0,0,1-.052-.628l.642-.075c1.512-.176,1.564-.528,1.564-3.193Z" transform="translate(-1157.252 -1580.918)" fill="#fff"/>
        <path id="Path_390" data-name="Path 390" d="M1247.281,1586.932c1.334-1.86,2.076-2.815,2.486-3.57a1.624,1.624,0,0,0,.307-.678c0-.125-.256-.2-.922-.2h-3.819c-2.052,0-3.2.176-3.82.83a7.081,7.081,0,0,0-1.129,1.709.513.513,0,0,1-.641-.176,37.468,37.468,0,0,0,1.051-3.77.451.451,0,0,1,.436,0c.077.6.461.628,2.538.628h6.767a27.107,27.107,0,0,0,2.949-.075.219.219,0,0,1,.154.226,50.376,50.376,0,0,0-4.205,5.379l-4.23,5.983a32.5,32.5,0,0,0-2.538,3.9c0,.252.257.3.718.352.666.051,2,.051,3.794.051,1.641,0,3.769-.051,4.744-.578a4.877,4.877,0,0,0,1.794-2.313c.23-.075.564-.051.641.176a14.044,14.044,0,0,1-1.154,3.569c-1.409-.051-2.87-.075-4.666-.075h-6.589c-1.359,0-2.281.05-2.871.075a.312.312,0,0,1-.128-.3,32.514,32.514,0,0,0,2.795-3.419Z" transform="translate(-1158.236 -1580.877)" fill="#fff"/>
        <path id="Path_391" data-name="Path 391" d="M1276.246,1588.054c0-1.558-.052-4.45-.487-5.2a1.6,1.6,0,0,0-1.282-.529l-.641-.051a.447.447,0,0,1,.051-.6c.974.051,1.922.075,2.923.075,1.076,0,1.768-.024,2.692-.075a.428.428,0,0,1,.051.6l-.615.051a1.51,1.51,0,0,0-1.281.6c-.36.829-.36,3.72-.36,5.128v2.84c0,2.187-.359,4.5-1.794,6.007a6.824,6.824,0,0,1-4.9,1.836,7.386,7.386,0,0,1-4.794-1.382c-1.359-1.106-2-2.942-2-5.932v-5.933c0-2.614-.052-3.041-1.539-3.167l-.641-.051c-.154-.1-.1-.527.051-.6,1.282.051,2.154.075,3.179.075,1.051,0,1.9-.024,3.153-.075.154.075.205.5.051.6l-.615.051c-1.487.126-1.539.554-1.539,3.167v5.43c0,4.047,1.282,6.711,5.205,6.711,3.716,0,5.127-2.866,5.127-6.686Z" transform="translate(-1159.67 -1580.918)" fill="#fff"/>
        <path id="Path_392" data-name="Path 392" d="M1289.377,1585.541c0-2.388-.077-2.815-1.127-2.941l-.82-.1a.414.414,0,0,1,.026-.629c1.435-.126,3.2-.2,5.717-.2a9.234,9.234,0,0,1,4.281.754,3.736,3.736,0,0,1,2.128,3.519,4.668,4.668,0,0,1-3.2,4.2c-.129.151,0,.4.128.6,2.05,3.242,3.409,5.254,5.153,6.687a3.1,3.1,0,0,0,1.768.7.209.209,0,0,1,.026.352,4.087,4.087,0,0,1-1.128.126c-2.179,0-3.486-.628-5.307-3.167-.666-.93-1.718-2.665-2.512-3.8a1.843,1.843,0,0,0-1.821-.8c-1.153,0-1.2.024-1.2.553v3.166c0,2.64.052,2.942,1.538,3.143l.539.075a.484.484,0,0,1-.052.628c-1.153-.051-2.025-.075-3.05-.075-1.077,0-2,.024-3.2.075a.478.478,0,0,1-.052-.628l.642-.075c1.487-.176,1.538-.5,1.538-3.143Zm2.1,3.6a1.941,1.941,0,0,0,.077.829c.077.075.462.126,1.769.126a4.364,4.364,0,0,0,2.64-.653,3.576,3.576,0,0,0,1.283-3.118,3.74,3.74,0,0,0-4.1-3.871c-1.59,0-1.667.1-1.667.8Z" transform="translate(-1161.292 -1580.918)" fill="#fff"/>
        <path id="Path_393" data-name="Path 393" d="M1312.5,1585.566c0-2.664-.052-3.092-1.564-3.218l-.641-.05c-.154-.1-.1-.553.051-.628,1.282.051,2.154.075,3.231.075,1.026,0,1.9-.024,3.178-.075.154.075.205.527.052.628l-.642.05c-1.512.125-1.563.553-1.563,3.218v8.949c0,2.664.051,3.017,1.563,3.193l.642.075c.153.1.1.553-.052.628-1.281-.051-2.153-.075-3.178-.075-1.077,0-1.949.024-3.231.075a.482.482,0,0,1-.051-.628l.641-.075c1.512-.176,1.564-.528,1.564-3.193Z" transform="translate(-1162.759 -1580.918)" fill="#fff"/>
        <path id="Path_394" data-name="Path 394" d="M1345.646,1594.513c0,2.64.052,3.017,1.538,3.143l.82.075c.155.1.1.553-.052.628-1.46-.051-2.333-.075-3.358-.075s-1.922.024-3.563.075a.433.433,0,0,1,0-.628l.923-.075c1.462-.126,1.589-.5,1.589-3.143v-11.236c0-.779,0-.8-.769-.8h-1.41c-1.1,0-2.512.051-3.153.628a4.58,4.58,0,0,0-1.153,1.734.5.5,0,0,1-.667-.176,26.059,26.059,0,0,0,.974-3.745.653.653,0,0,1,.487,0c.154.8,1,.779,2.179.779h10.382c1.385,0,1.616-.051,2-.7.128-.051.409-.025.461.075a14.944,14.944,0,0,0-.384,3.821c-.1.2-.539.2-.667.051-.077-.628-.256-1.559-.641-1.836a5.2,5.2,0,0,0-2.974-.628h-1.822c-.769,0-.743.025-.743.855Z" transform="translate(-1164.42 -1580.867)" fill="#fff"/>
        <path id="Path_395" data-name="Path 395" d="M1367.019,1590.217c-1.23,0-1.281.051-1.281.8v3.544c0,2.64.128,2.992,1.563,3.143l.744.075c.155.1.1.553-.051.628-1.383-.051-2.255-.075-3.255-.075-1.1,0-1.974.05-2.973.075a.48.48,0,0,1-.052-.628l.436-.075c1.436-.252,1.487-.5,1.487-3.143v-9.049c0-2.639-.179-3.066-1.512-3.167l-.667-.05c-.154-.1-.1-.553.052-.628,1.256.024,2.128.075,3.23.075,1,0,1.872-.024,2.974-.075.154.075.2.527.051.628l-.487.05c-1.486.152-1.538.528-1.538,3.167v2.891c0,.779.051.8,1.281.8h7.332c1.232,0,1.283-.025,1.283-.8v-2.891c0-2.639-.051-3.016-1.564-3.167l-.488-.05c-.154-.1-.1-.553.052-.628,1.18.051,2.051.075,3.1.075,1,0,1.871-.024,3.026-.075.153.075.205.527.051.628l-.539.05c-1.487.152-1.538.528-1.538,3.167v9.049c0,2.64.051,2.967,1.538,3.143l.616.075c.154.1.1.553-.052.628-1.231-.051-2.1-.075-3.1-.075-1.051,0-1.973.024-3.1.075a.482.482,0,0,1-.052-.628l.488-.075c1.564-.252,1.564-.5,1.564-3.143v-3.544c0-.753-.051-.8-1.283-.8Z" transform="translate(-1166.005 -1580.918)" fill="#fff"/>
        <path id="Path_396" data-name="Path 396" d="M1391.154,1585.515c0-2.614-.051-2.991-1.564-3.167l-.409-.05c-.155-.1-.1-.553.051-.628,1.1.051,1.974.075,3.025.075h4.819c1.641,0,3.154,0,3.461-.075a27.491,27.491,0,0,1,.41,3.343.512.512,0,0,1-.641.051c-.385-1.182-.616-2.06-1.948-2.388a12.509,12.509,0,0,0-2.487-.151h-1.846c-.769,0-.769.051-.769,1.006v5.027c0,.7.077.7.847.7h1.486a9.65,9.65,0,0,0,2.179-.151c.307-.1.487-.251.615-.879l.205-1.031a.517.517,0,0,1,.667.025c0,.6-.1,1.584-.1,2.539,0,.9.1,1.861.1,2.413a.515.515,0,0,1-.667.025l-.23-.981a1.08,1.08,0,0,0-.8-.954,8.692,8.692,0,0,0-1.974-.126H1394.1c-.77,0-.847.025-.847.678v3.545c0,1.332.077,2.187.487,2.615.308.3.846.578,3.1.578a7.639,7.639,0,0,0,3.282-.378,6.336,6.336,0,0,0,1.821-2.438.476.476,0,0,1,.641.175,21.632,21.632,0,0,1-1.153,3.494c-2.308-.051-4.59-.075-6.871-.075h-2.307c-1.1,0-1.973.024-3.487.075a.482.482,0,0,1-.051-.628l.846-.075c1.461-.126,1.589-.5,1.589-3.143Z" transform="translate(-1167.736 -1580.918)" fill="#fff"/>
        <path id="Path_397" data-name="Path 397" d="M1413.178,1585.541c0-2.388-.077-2.815-1.128-2.941l-.82-.1a.414.414,0,0,1,.025-.629c1.436-.126,3.2-.2,5.718-.2a9.236,9.236,0,0,1,4.281.754,3.735,3.735,0,0,1,2.128,3.519,4.668,4.668,0,0,1-3.2,4.2c-.129.151,0,.4.127.6,2.051,3.242,3.41,5.254,5.153,6.687a3.109,3.109,0,0,0,1.769.7.208.208,0,0,1,.025.352,4.074,4.074,0,0,1-1.128.126c-2.179,0-3.486-.628-5.307-3.167-.667-.93-1.718-2.665-2.512-3.8a1.844,1.844,0,0,0-1.821-.8c-1.153,0-1.2.024-1.2.553v3.166c0,2.64.052,2.942,1.538,3.143l.538.075a.485.485,0,0,1-.051.628c-1.153-.051-2.025-.075-3.051-.075-1.076,0-2,.024-3.2.075a.477.477,0,0,1-.052-.628l.641-.075c1.487-.176,1.539-.5,1.539-3.143Zm2.1,3.6a1.944,1.944,0,0,0,.077.829c.077.075.461.126,1.769.126a4.364,4.364,0,0,0,2.64-.653,3.578,3.578,0,0,0,1.282-3.118,3.74,3.74,0,0,0-4.1-3.871c-1.589,0-1.666.1-1.666.8Z" transform="translate(-1169.15 -1580.918)" fill="#fff"/>
        <path id="Path_398" data-name="Path 398" d="M1443.52,1591.624c.59,1.18,1.155,2.338,1.769,3.444h.052c.692-1.182,1.333-2.489,1.974-3.771l2.41-4.8c1.154-2.287,1.9-3.67,1.948-4.826.872.075,1.41.075,1.923.075.641,0,1.487-.024,2.282-.075a.521.521,0,0,1,.025.628l-.538.05c-1.615.152-1.822.628-1.8,2.388.051,2.664.078,7.315.283,10.935.077,1.257.051,1.935,1.255,2.036l.82.075a.458.458,0,0,1-.051.628c-1.051-.051-2.1-.075-3.025-.075-.9,0-2.051.024-3.1.075a.458.458,0,0,1-.052-.628l.744-.075c1.256-.126,1.256-.528,1.256-2.136l-.077-10.483h-.052c-.179.276-1.153,2.288-1.666,3.268l-2.282,4.4c-1.153,2.212-2.308,4.576-2.768,5.732a.3.3,0,0,1-.257.1.315.315,0,0,1-.23-.1c-.436-1.333-1.667-3.8-2.257-5.027l-2.306-4.851c-.54-1.157-1.078-2.464-1.641-3.62h-.052c-.1,1.558-.18,3.016-.257,4.474-.078,1.534-.18,3.771-.18,5.908,0,1.86.154,2.262,1.154,2.338l.975.075c.179.151.153.553-.026.628-.871-.051-1.872-.075-2.846-.075-.82,0-1.743.024-2.615.075a.49.49,0,0,1-.052-.628l.565-.075c1.076-.151,1.435-.3,1.588-2.061.155-1.659.283-3.041.437-5.53.128-2.087.23-4.223.282-5.605.052-1.584-.154-1.961-1.718-2.162l-.41-.05a.465.465,0,0,1,.1-.628c.769.051,1.384.075,2.025.075.59,0,1.282,0,2.128-.075-.1.981.54,2.539,1.334,4.148Z" transform="translate(-1170.626 -1580.918)" fill="#fff"/>
        <path id="Path_399" data-name="Path 399" d="M1473.784,1592.482c-.18-.554-.283-.628-1.052-.628h-3.871c-.641,0-.794.075-.974.6l-.9,2.639a9.463,9.463,0,0,0-.563,2.086c0,.3.127.452.744.5l.846.075a.4.4,0,0,1-.052.628c-.667-.051-1.461-.051-2.666-.075-.847,0-1.769.05-2.461.075a.488.488,0,0,1-.052-.628l.846-.075a1.7,1.7,0,0,0,1.539-1.232c.462-1.156,1.18-2.79,2.256-5.605l2.615-6.787a3.541,3.541,0,0,0,.436-1.784,2.875,2.875,0,0,0,1.333-.955.365.365,0,0,1,.385.226c.332,1.106.744,2.263,1.128,3.369l3.512,10.105c.744,2.161,1.077,2.538,2.179,2.664l.692.075a.485.485,0,0,1,0,.628c-1.051-.051-1.948-.075-3.1-.075-1.231,0-2.206.05-2.948.075a.416.416,0,0,1-.052-.628l.744-.075c.539-.051.9-.2.9-.453a5.074,5.074,0,0,0-.333-1.332Zm-5.076-2.237c-.206.578-.18.6.537.6h3.154c.744,0,.794-.1.564-.779l-1.384-4.1a16.034,16.034,0,0,0-.59-1.583h-.052a15.273,15.273,0,0,0-.615,1.483Z" transform="translate(-1172.437 -1580.896)" fill="#fff"/>
        <path id="Path_400" data-name="Path 400" d="M1488.706,1585.515c0-2.614-.051-2.991-1.564-3.167l-.409-.05c-.156-.1-.1-.553.051-.628,1.1.051,1.974.075,3.025.075h4.819c1.641,0,3.153,0,3.461-.075a27.268,27.268,0,0,1,.411,3.343.513.513,0,0,1-.641.051c-.384-1.182-.615-2.06-1.948-2.388a12.494,12.494,0,0,0-2.487-.151h-1.846c-.769,0-.769.051-.769,1.006v5.027c0,.7.077.7.846.7h1.486a9.645,9.645,0,0,0,2.179-.151c.308-.1.488-.251.616-.879l.2-1.031a.517.517,0,0,1,.667.025c0,.6-.1,1.584-.1,2.539,0,.9.1,1.861.1,2.413a.515.515,0,0,1-.667.025l-.23-.981a1.077,1.077,0,0,0-.794-.954,8.7,8.7,0,0,0-1.975-.126h-1.486c-.769,0-.846.025-.846.678v3.545c0,1.332.077,2.187.487,2.615.308.3.846.578,3.1.578a7.642,7.642,0,0,0,3.282-.378,6.327,6.327,0,0,0,1.82-2.438.477.477,0,0,1,.641.175,21.525,21.525,0,0,1-1.154,3.494c-2.307-.051-4.589-.075-6.87-.075h-2.308c-1.1,0-1.974.024-3.487.075a.482.482,0,0,1-.052-.628l.847-.075c1.461-.126,1.589-.5,1.589-3.143Z" transform="translate(-1173.927 -1580.918)" fill="#fff"/>
      </g>
      <g id="Group_61" data-name="Group 61" transform="translate(182.013 44.245)">
        <path id="Path_401" data-name="Path 401" d="M1272.985,1620.648a7.508,7.508,0,0,1-2.854,3.311.92.92,0,0,1-.4.177.172.172,0,0,1-.17-.192c0-.044.015-.133.156-.236a8.074,8.074,0,0,0,2.628-3.5,10.054,10.054,0,0,0,.739-3.547c0-.281,0-.5-.143-.591a1.268,1.268,0,0,0-.61-.163c-.086,0-.128-.044-.128-.1a.337.337,0,0,1,.17-.252.841.841,0,0,1,.454-.118,2.48,2.48,0,0,1,.967.177c.228.089.313.207.313.4a1.263,1.263,0,0,1-.085.281,3.544,3.544,0,0,0-.057.488,16.585,16.585,0,0,0,2.812-2.423c.1-.1.071-.192-.113-.192-.156,0-1.7.1-3.025.25-1.01.119-2.146.237-3.083.415a2.659,2.659,0,0,0-.781.221.579.579,0,0,1-.4.118,1.731,1.731,0,0,1-.966-.68,1.271,1.271,0,0,1-.327-.709c0-.133.042-.28.128-.28s.141.073.241.176a1.341,1.341,0,0,0,.98.474q.469,0,1.322-.089c2.13-.207,3.423-.325,5.383-.473.426-.03.525-.059.639-.177a.374.374,0,0,1,.242-.119,1.636,1.636,0,0,1,.8.473,1.272,1.272,0,0,1,.482.754c0,.177-.142.3-.341.325a1.415,1.415,0,0,0-.781.31,25.3,25.3,0,0,1-3.267,2.158A10.436,10.436,0,0,1,1272.985,1620.648Z" transform="translate(-1268.085 -1611.768)" fill="#fff"/>
        <path id="Path_402" data-name="Path 402" d="M1286.678,1616.927c0-.089.056-.149.213-.149a3.7,3.7,0,0,1,1.334.341c.611.28,1.009.62,1.009,1.049s-.227.591-.5.591c-.184,0-.384-.178-.554-.429a3.9,3.9,0,0,0-1.364-1.2A.237.237,0,0,1,1286.678,1616.927Zm2.584,4.9a28.722,28.722,0,0,0,4.176-2.852,28.3,28.3,0,0,0,2.956-2.763c.141-.163.242-.281.3-.281a.231.231,0,0,1,.214.192c0,.059-.014.1-.156.31a17.734,17.734,0,0,1-2.983,3.222,34.761,34.761,0,0,1-4.091,3.074.883.883,0,0,0-.285.281.584.584,0,0,1-.426.295c-.227,0-.539-.252-.837-.576a1.774,1.774,0,0,1-.54-1.109c0-.207.029-.384.142-.384.085,0,.156.074.242.222.141.236.5.591.71.591A1.143,1.143,0,0,0,1289.262,1621.831Zm-.809-7.919c0-.089.057-.148.214-.148a3.556,3.556,0,0,1,1.377.472c.583.341.853.651.853,1.064a.527.527,0,0,1-.511.562.574.574,0,0,1-.44-.31,5.093,5.093,0,0,0-1.379-1.463A.22.22,0,0,1,1288.453,1613.912Z" transform="translate(-1269.265 -1611.798)" fill="#fff"/>
        <path id="Path_403" data-name="Path 403" d="M1313.646,1620.886a2.273,2.273,0,0,1,.667,1.167c0,.384-.213.547-.411.547-.242,0-.4-.1-.6-.4a9.625,9.625,0,0,0-3.536-3.252,15.6,15.6,0,0,1-5.369,3.932.983.983,0,0,1-.384.118.162.162,0,0,1-.17-.148.183.183,0,0,1,.114-.192,19.551,19.551,0,0,0,4.73-3.679,17.437,17.437,0,0,0,2.571-3.622c.056-.1.07-.132.07-.162s-.042-.03-.07-.03a34.005,34.005,0,0,0-3.906.562,1.339,1.339,0,0,0-.483.163.6.6,0,0,1-.356.1c-.255,0-.553-.163-.979-.62a1.289,1.289,0,0,1-.355-.784c0-.147.071-.221.127-.221.071,0,.128.059.185.118a1.62,1.62,0,0,0,1.065.561c.156,0,.753-.058,1.08-.088,1.08-.118,2.315-.251,3.252-.355a.994.994,0,0,0,.554-.251.444.444,0,0,1,.27-.163,1.3,1.3,0,0,1,.7.34c.256.193.4.34.4.562,0,.147-.142.236-.356.325a.7.7,0,0,0-.44.4,27.1,27.1,0,0,1-1.917,2.778A10.9,10.9,0,0,1,1313.646,1620.886Zm-.881-8.29a3.416,3.416,0,0,1,1.051.591,1.529,1.529,0,0,1,.612.961c0,.266-.142.428-.355.428s-.285-.118-.469-.487a4.2,4.2,0,0,0-1.051-1.2.2.2,0,0,1-.085-.148.162.162,0,0,1,.156-.163A.451.451,0,0,1,1312.765,1612.6Zm1.278-.886a3.593,3.593,0,0,1,1.01.487,1.379,1.379,0,0,1,.639.946.364.364,0,0,1-.327.4c-.171,0-.271-.059-.468-.4a3.678,3.678,0,0,0-1.166-1.183.193.193,0,0,1-.056-.147.145.145,0,0,1,.141-.148A.936.936,0,0,1,1314.043,1611.71Z" transform="translate(-1270.355 -1611.665)" fill="#fff"/>
        <path id="Path_404" data-name="Path 404" d="M1329.374,1613.124a1.477,1.477,0,0,0-.711-.354c-.113-.031-.185-.074-.185-.192,0-.149.27-.281.526-.281a3.2,3.2,0,0,1,1.009.3c.383.178.7.384.7.68a.435.435,0,0,1-.128.295c-.085.089-.141.237-.156.739-.028,1.493-.028,2.778-.141,3.872a6.937,6.937,0,0,1-.995,3.177,7.466,7.466,0,0,1-4.29,2.956,1.681,1.681,0,0,1-.27.044.193.193,0,0,1-.2-.178.191.191,0,0,1,.142-.192,7.9,7.9,0,0,0,4.076-3.25,7.422,7.422,0,0,0,.739-2.941c.085-1.138.085-2.468.071-3.946C1329.558,1613.4,1329.53,1613.3,1329.374,1613.124Zm-3.665.857a1.172,1.172,0,0,0-.554-.428c-.141-.06-.184-.074-.184-.163,0-.147.228-.266.341-.266a1.961,1.961,0,0,1,.995.4c.369.251.6.428.6.68a.414.414,0,0,1-.141.3c-.071.074-.128.222-.141.651-.029.886-.043,2.364-.043,4.122,0,.489-.156.607-.327.607s-.3-.118-.426-.355a1.631,1.631,0,0,1-.17-.725,1.2,1.2,0,0,1,.056-.384,1.805,1.805,0,0,0,.07-.443c.043-1.2.057-2.231.057-3.177C1325.837,1614.277,1325.823,1614.143,1325.709,1613.981Z" transform="translate(-1271.667 -1611.705)" fill="#fff"/>
        <path id="Path_405" data-name="Path 405" d="M1343.035,1617.444a2.158,2.158,0,0,0-.739.208.645.645,0,0,1-.355.1,1.382,1.382,0,0,1-.824-.443,1.264,1.264,0,0,1-.468-.739c0-.178.057-.251.113-.251a.228.228,0,0,1,.128.058,1.629,1.629,0,0,0,.966.488,6.392,6.392,0,0,0,.7-.044c1.178-.133,2.159-.221,3.479-.34,1.151-.1,2.06-.178,3.2-.281a1.38,1.38,0,0,0,.611-.147.7.7,0,0,1,.383-.148,2.219,2.219,0,0,1,.952.311c.242.147.341.279.341.472a.29.29,0,0,1-.327.311c-.326,0-.625-.06-1.022-.075-.483-.014-.995-.014-1.478,0-.682.015-1.491.06-2.146.1.385.237.64.487.64.665a.374.374,0,0,1-.085.237.732.732,0,0,0-.17.31,9.413,9.413,0,0,1-1.464,3.221,9.629,9.629,0,0,1-2.742,2.586.524.524,0,0,1-.27.089.176.176,0,0,1-.156-.178c0-.089.029-.132.143-.221a10.555,10.555,0,0,0,2.385-2.7,9.966,9.966,0,0,0,1.207-2.925,1.6,1.6,0,0,0,.057-.444.82.82,0,0,0-.242-.576C1344.925,1617.163,1343.917,1617.282,1343.035,1617.444Zm2.16-3.783c.611-.058,1.335-.147,1.946-.25a3.328,3.328,0,0,0,.8-.193,1.31,1.31,0,0,1,.511-.133,1.168,1.168,0,0,1,.626.148c.241.163.313.281.313.444,0,.206-.156.31-.427.339-1.208.119-2.685.237-4.021.34a8.722,8.722,0,0,1-.908.059,1.226,1.226,0,0,1-.924-.34c-.313-.266-.51-.5-.51-.709,0-.1.07-.207.155-.207s.1.045.184.118a1.681,1.681,0,0,0,1.08.444C1344.4,1613.721,1344.967,1613.677,1345.2,1613.661Z" transform="translate(-1272.69 -1611.755)" fill="#fff"/>
        <path id="Path_406" data-name="Path 406" d="M1361.364,1616.306a2.02,2.02,0,0,0-.482-.311c-.127-.058-.185-.089-.185-.176,0-.1.143-.223.328-.223a2.228,2.228,0,0,1,1.136.459c.256.177.555.458.555.753a.414.414,0,0,1-.171.325.936.936,0,0,0-.257.532,9.884,9.884,0,0,1-1.378,2.912,8.818,8.818,0,0,1-2.287,2.29.429.429,0,0,1-.228.089c-.07,0-.17-.044-.17-.118a.221.221,0,0,1,.1-.207,9.854,9.854,0,0,0,1.946-2.395,10.316,10.316,0,0,0,1.121-2.645,3.963,3.963,0,0,0,.143-.842A.509.509,0,0,0,1361.364,1616.306Zm2.6-1.152c-.086-.223-.313-.355-.7-.518-.071-.029-.127-.059-.127-.133,0-.119.185-.266.426-.266a2.174,2.174,0,0,1,1.022.4c.313.192.54.384.54.636a.5.5,0,0,1-.156.339.942.942,0,0,0-.127.532c-.043,1.434-.086,2.926-.086,4.61,0,.074.015.118.071.118a.466.466,0,0,0,.185-.059,21.723,21.723,0,0,0,5.056-3.31c.071-.059.113-.1.185-.1a.2.2,0,0,1,.185.178.27.27,0,0,1-.072.162,19.446,19.446,0,0,1-4.957,3.976.756.756,0,0,0-.3.31.32.32,0,0,1-.285.192c-.169,0-.426-.251-.583-.428a1.134,1.134,0,0,1-.34-.636.761.761,0,0,1,.07-.237,1.167,1.167,0,0,0,.057-.4c.014-1.448.014-3.162.014-4.433A2.644,2.644,0,0,0,1363.965,1615.154Z" transform="translate(-1273.806 -1611.828)" fill="#fff"/>
        <path id="Path_407" data-name="Path 407" d="M1384.385,1614.617a1.806,1.806,0,0,0,.184-.71c0-.266-.241-.487-.824-.738-.113-.045-.169-.074-.169-.148,0-.118.155-.252.44-.252a2.379,2.379,0,0,1,1.207.444c.44.31.71.562.71.857a.419.419,0,0,1-.284.384,1.3,1.3,0,0,0-.412.562c-.426.872-.867,1.729-1.42,2.734a8.145,8.145,0,0,1,1.136,1.123,1.766,1.766,0,0,1,.525,1.109.451.451,0,0,1-.441.487c-.155,0-.3-.074-.482-.384a8.325,8.325,0,0,0-1.193-1.6,16,16,0,0,1-5.7,5.32.52.52,0,0,1-.284.074.167.167,0,0,1-.185-.192.247.247,0,0,1,.128-.192,17.02,17.02,0,0,0,5.411-5.571,15.9,15.9,0,0,0-2.145-1.478c-.17-.1-.213-.163-.213-.25a.152.152,0,0,1,.171-.149,1.189,1.189,0,0,1,.3.074,14.1,14.1,0,0,1,2.3,1.138A28.367,28.367,0,0,0,1384.385,1614.617Z" transform="translate(-1275.01 -1611.735)" fill="#fff"/>
      </g>
    </g>
  </g>
</svg>
