<svg xmlns="http://www.w3.org/2000/svg" width="310" height="120" viewBox="0 0 310 120">
  <g id="Group_142" data-name="Group 142" transform="translate(-243.459 -246.81)">
    <path id="Path_932" data-name="Path 932" d="M363.351,301.335a60.046,60.046,0,1,0-65.307,65.235c1.791.16,3.612.241,5.411.241a60.092,60.092,0,0,0,59.9-65.475Zm-48.639,6.893a7.669,7.669,0,0,1,2.146-4.323,11.433,11.433,0,0,1,16.361,0,7.686,7.686,0,0,1,2.147,4.317.844.844,0,0,1-.207.659.8.8,0,0,1-.607.273H315.52a.792.792,0,0,1-.6-.269A.838.838,0,0,1,314.712,308.228ZM355.365,291.7c-5.344,4.526-18.266,11.236-18.4,11.3-.67.39-1.489.774-1.9.318-.214-.239-.872-.874-1.075-1.059a13.269,13.269,0,0,0-8.87-3.453,13.7,13.7,0,0,0-9.574,4.059,2.305,2.305,0,0,1-2.689.606c-.444-.165-44.459-16.592-55.622-24.648-2.9-2.09-1.869-4.232-.843-5.66a55.826,55.826,0,0,1,20.668-17.458,60.223,60.223,0,0,1,26.465-6.069c11.737,0,24.361,3.662,32.949,9.558a57.56,57.56,0,0,1,20.975,26.379C358.259,287.615,357.025,290.29,355.365,291.7ZM313.627,306.6a7.281,7.281,0,0,0-.3,1.429c-.048.936-1.013,1.072-1.3,1.091H249.157a3.542,3.542,0,0,1-2.633-.83c-.667-.663-.977-1.748-.977-3.418,0-7.442,3.166-16.773,5.052-21.673a3.793,3.793,0,0,1,2.041-2.4,2.737,2.737,0,0,1,.964-.165,5.892,5.892,0,0,1,2.7.819c15.161,8.115,55.926,23.286,56.321,23.432.078.041.166.08.256.122C313.436,305.262,314.008,305.521,313.627,306.6Zm-66.463,7.268a3.585,3.585,0,0,1,2.811-1.323c18.535-1.217,70.746-1.8,71.195-1.8a.22.22,0,0,1,.193.118.213.213,0,0,1,0,.221c-13.724,21.728-45.676,27.793-57.708,30.077-2.816.533-6.283.8-8.124-1.915-5.308-7.819-6.876-13.354-8.83-21.543A4.617,4.617,0,0,1,247.164,313.872Zm15.089,32.148a1.841,1.841,0,0,1,1.443-1.292c13.279-2.486,45.663-10.738,59.529-33.624a.933.933,0,0,1,.8-.456h5.018a.811.811,0,0,1,.6.267c7.793,8.443,21.289,12.351,25.725,13.635a3.091,3.091,0,0,1,1.924,1.632,3.921,3.921,0,0,1-.245,2.82A55.981,55.981,0,0,1,335.7,354.6a59.087,59.087,0,0,1-32.172,9.33c-16.111,0-30.225-5.554-40.814-16.061A1.811,1.811,0,0,1,262.252,346.021Zm93.239-23.49-.036.124h0l.033-.126c-5.859-1.706-16.766-4.883-23.452-11.36a.227.227,0,0,1-.05-.257.259.259,0,0,1,.244-.166c.026,0,3.067-.03,7.267-.03,5.7,0,13.082.239,18.8.608a2.859,2.859,0,0,1,2.089.977,2.718,2.718,0,0,1,.655,1.715,43.331,43.331,0,0,1-1.175,6.46,3.049,3.049,0,0,1-3.848,2.206Zm3.8-13.406H337.95a1,1,0,0,1-1.1-1.12,8.207,8.207,0,0,0-.432-2.195c-.137-.442.484-1.271.928-1.536.136-.072,13.7-7.252,19.488-11.6a1.782,1.782,0,0,1,1.1-.3,2.19,2.19,0,0,1,.863.18,2.149,2.149,0,0,1,1.269,1.508,52.775,52.775,0,0,1,1.424,11.9C361.494,307.407,360.3,309.124,359.288,309.124Z" fill="#fff"/>
    <g id="Group_139" data-name="Group 139" transform="translate(385.496 260.732)">
      <path id="Path_933" data-name="Path 933" d="M411.548,274.5c-.194-.6-.306-.681-1.139-.681h-4.195c-.694,0-.861.082-1.056.654l-.972,2.859a10.248,10.248,0,0,0-.611,2.26c0,.328.139.491.806.546l.917.081a.433.433,0,0,1-.057.681c-.722-.055-1.583-.055-2.889-.081-.916,0-1.916.054-2.666.081a.527.527,0,0,1-.056-.681l.917-.081a1.842,1.842,0,0,0,1.666-1.335c.5-1.253,1.278-3.023,2.445-6.073l2.833-7.353a3.84,3.84,0,0,0,.473-1.934,3.107,3.107,0,0,0,1.444-1.035.394.394,0,0,1,.417.245c.361,1.2.806,2.451,1.223,3.649l3.8,10.949c.806,2.341,1.167,2.75,2.361,2.887l.749.081a.524.524,0,0,1,0,.681c-1.139-.055-2.111-.081-3.361-.081-1.333,0-2.389.054-3.195.081a.45.45,0,0,1-.055-.681l.8-.081c.584-.055.973-.218.973-.491a5.485,5.485,0,0,0-.361-1.444Zm-5.5-2.424c-.222.627-.194.653.583.653h3.417c.8,0,.86-.109.611-.844l-1.5-4.439a17.518,17.518,0,0,0-.639-1.715h-.055a16.168,16.168,0,0,0-.667,1.607Z" transform="translate(-399.53 -262.097)" fill="#fff"/>
      <path id="Path_934" data-name="Path 934" d="M431.7,281.249a8.811,8.811,0,0,1-4.333-1.007,12.354,12.354,0,0,1-.749-3.813c.139-.191.555-.245.666-.081.416,1.389,1.556,4.058,4.777,4.058a3.128,3.128,0,0,0,3.473-3.132,4.075,4.075,0,0,0-2.278-3.813l-2.639-1.689a5.8,5.8,0,0,1-3-4.684c0-2.587,2.056-4.684,5.666-4.684a10.928,10.928,0,0,1,2.583.354,3.823,3.823,0,0,0,.973.163,11.69,11.69,0,0,1,.5,3.322c-.111.163-.556.245-.694.082a3.616,3.616,0,0,0-3.779-3.078c-2.721,0-3.3,1.77-3.3,3.023,0,1.579,1.333,2.724,2.361,3.35l2.222,1.361c1.75,1.062,3.472,2.642,3.472,5.229C437.618,279.207,435.313,281.249,431.7,281.249Z" transform="translate(-401.902 -262.097)" fill="#fff"/>
      <path id="Path_935" data-name="Path 935" d="M453.067,272.051c-1.333,0-1.39.055-1.39.872v3.84c0,2.859.14,3.24,1.7,3.4l.806.081c.166.109.11.6-.057.681-1.5-.055-2.445-.081-3.527-.081-1.2,0-2.14.054-3.222.081a.52.52,0,0,1-.057-.681l.473-.081c1.556-.273,1.61-.546,1.61-3.4v-9.8c0-2.86-.194-3.322-1.639-3.432l-.722-.054c-.166-.109-.111-.6.056-.681,1.361.026,2.3.081,3.5.081,1.082,0,2.027-.027,3.222-.081.167.081.222.571.056.681l-.528.054c-1.611.163-1.667.572-1.667,3.432v3.132c0,.843.057.871,1.39.871h7.944c1.333,0,1.389-.028,1.389-.871v-3.132c0-2.86-.056-3.268-1.694-3.432l-.527-.054c-.167-.109-.111-.6.055-.681,1.278.054,2.223.081,3.362.081,1.083,0,2.028-.027,3.278-.081.166.081.223.571.056.681l-.583.054c-1.611.163-1.667.572-1.667,3.432v9.8c0,2.859.056,3.214,1.667,3.4l.666.081c.167.109.111.6-.056.681-1.332-.055-2.278-.081-3.361-.081-1.139,0-2.139.026-3.362.081a.521.521,0,0,1-.055-.681l.527-.081c1.694-.273,1.694-.546,1.694-3.4v-3.84c0-.818-.056-.872-1.389-.872Z" transform="translate(-403.68 -262.131)" fill="#fff"/>
      <path id="Path_936" data-name="Path 936" d="M480.637,267.013c0-2.887-.055-3.35-1.694-3.487l-.7-.054c-.166-.109-.11-.6.057-.681,1.388.054,2.332.081,3.5.081,1.111,0,2.056-.027,3.445-.081.167.081.222.571.056.681l-.694.054c-1.64.137-1.694.6-1.694,3.487v9.7c0,2.887.055,3.268,1.694,3.459l.694.081c.166.109.111.6-.056.681-1.389-.055-2.333-.081-3.445-.081-1.167,0-2.111.026-3.5.081a.521.521,0,0,1-.057-.681l.7-.081c1.639-.191,1.694-.572,1.694-3.459Z" transform="translate(-406.412 -262.131)" fill="#fff"/>
      <path id="Path_937" data-name="Path 937" d="M504.428,268.474c1.444-2.016,2.25-3.049,2.7-3.867a1.768,1.768,0,0,0,.333-.735c0-.136-.277-.218-1-.218h-4.139c-2.222,0-3.472.191-4.138.9a7.7,7.7,0,0,0-1.223,1.851.556.556,0,0,1-.694-.191,40.728,40.728,0,0,0,1.139-4.085.483.483,0,0,1,.473,0c.083.653.5.681,2.749.681h7.334a29.607,29.607,0,0,0,3.195-.081.237.237,0,0,1,.166.245,54.912,54.912,0,0,0-4.555,5.828l-4.582,6.482a35.029,35.029,0,0,0-2.75,4.221c0,.272.277.327.776.381.723.054,2.167.054,4.112.054,1.778,0,4.083-.054,5.139-.626a5.281,5.281,0,0,0,1.944-2.506c.249-.082.611-.054.694.191a15.241,15.241,0,0,1-1.25,3.867c-1.527-.055-3.112-.081-5.055-.081h-7.139c-1.472,0-2.473.054-3.111.081a.337.337,0,0,1-.139-.327,35.045,35.045,0,0,0,3.027-3.7Z" transform="translate(-407.922 -262.068)" fill="#fff"/>
      <path id="Path_938" data-name="Path 938" d="M536.466,269.709c0-1.689-.056-4.821-.528-5.638a1.734,1.734,0,0,0-1.389-.572l-.694-.054a.485.485,0,0,1,.056-.653c1.056.054,2.083.081,3.167.081,1.166,0,1.916-.027,2.916-.081a.463.463,0,0,1,.055.653l-.666.054a1.639,1.639,0,0,0-1.39.654c-.388.9-.388,4.03-.388,5.556v3.077c0,2.37-.389,4.874-1.944,6.509a7.4,7.4,0,0,1-5.306,1.988,8,8,0,0,1-5.194-1.5c-1.472-1.2-2.166-3.187-2.166-6.427v-6.427c0-2.832-.057-3.295-1.667-3.432l-.694-.054c-.167-.109-.111-.572.056-.653,1.389.054,2.333.081,3.445.081,1.139,0,2.055-.027,3.416-.081.167.081.222.545.056.653l-.667.054c-1.61.137-1.666.6-1.666,3.432v5.883c0,4.384,1.388,7.271,5.639,7.271,4.028,0,5.555-3.105,5.555-7.244Z" transform="translate(-410.122 -262.131)" fill="#fff"/>
      <path id="Path_939" data-name="Path 939" d="M551.432,266.986c0-2.588-.083-3.05-1.222-3.186l-.889-.109a.449.449,0,0,1,.027-.681c1.556-.136,3.473-.217,6.194-.217a10.008,10.008,0,0,1,4.639.817,4.049,4.049,0,0,1,2.306,3.812,5.057,5.057,0,0,1-3.472,4.549c-.139.163,0,.435.139.653,2.223,3.513,3.695,5.692,5.583,7.244a3.365,3.365,0,0,0,1.917.763.225.225,0,0,1,.027.381,4.417,4.417,0,0,1-1.222.136c-2.361,0-3.778-.681-5.75-3.431-.722-1.008-1.86-2.888-2.723-4.113a1.994,1.994,0,0,0-1.972-.871c-1.25,0-1.3.026-1.3.6v3.432c0,2.859.055,3.186,1.666,3.4l.583.081a.525.525,0,0,1-.055.681c-1.25-.055-2.195-.081-3.306-.081-1.167,0-2.166.026-3.472.081a.516.516,0,0,1-.056-.681l.694-.081c1.611-.191,1.666-.546,1.666-3.4Zm2.278,3.894a2.113,2.113,0,0,0,.083.9c.083.082.5.136,1.916.136a4.73,4.73,0,0,0,2.862-.708,3.872,3.872,0,0,0,1.389-3.377c0-2.152-1.361-4.194-4.445-4.194-1.722,0-1.8.109-1.8.871Z" transform="translate(-412.611 -262.131)" fill="#fff"/>
      <path id="Path_940" data-name="Path 940" d="M577.158,267.013c0-2.887-.056-3.35-1.694-3.487l-.694-.054c-.167-.109-.11-.6.056-.681,1.389.054,2.333.081,3.5.081,1.111,0,2.056-.027,3.445-.081.166.081.222.571.055.681l-.694.054c-1.639.137-1.694.6-1.694,3.487v9.7c0,2.887.056,3.268,1.694,3.459l.694.081c.167.109.111.6-.055.681-1.39-.055-2.334-.081-3.445-.081-1.166,0-2.111.026-3.5.081a.521.521,0,0,1-.056-.681l.694-.081c1.639-.191,1.694-.572,1.694-3.459Z" transform="translate(-414.86 -262.131)" fill="#fff"/>
      <path id="Path_941" data-name="Path 941" d="M410.429,317.857c0,2.86.056,3.268,1.667,3.4l.889.082c.166.109.111.6-.056.681-1.583-.054-2.528-.081-3.639-.081s-2.083.027-3.861.081a.468.468,0,0,1,0-.681l1-.082c1.583-.136,1.722-.544,1.722-3.4V305.683c0-.844,0-.871-.833-.871h-1.527c-1.2,0-2.723.056-3.417.681a4.978,4.978,0,0,0-1.25,1.88.542.542,0,0,1-.722-.191,28.213,28.213,0,0,0,1.056-4.058.708.708,0,0,1,.527,0c.167.872,1.083.844,2.361.844H415.6c1.5,0,1.75-.054,2.167-.763.139-.054.444-.026.5.082a16.183,16.183,0,0,0-.417,4.139c-.111.219-.583.219-.723.056-.083-.682-.277-1.689-.693-1.989a5.631,5.631,0,0,0-3.222-.681h-1.973c-.833,0-.806.027-.806.927Z" transform="translate(-399.607 -265.657)" fill="#fff"/>
      <path id="Path_942" data-name="Path 942" d="M434.31,313.223c-1.333,0-1.389.054-1.389.871v3.841c0,2.86.14,3.241,1.694,3.4l.806.082c.166.109.111.6-.056.681-1.5-.054-2.445-.081-3.528-.081-1.194,0-2.139.054-3.222.081a.521.521,0,0,1-.056-.681l.473-.082c1.555-.272,1.611-.544,1.611-3.4v-9.8c0-2.86-.194-3.322-1.639-3.432l-.723-.054c-.166-.109-.111-.6.056-.682,1.361.028,2.306.082,3.5.082,1.083,0,2.028-.027,3.222-.082.167.082.222.572.056.682l-.527.054c-1.611.164-1.667.572-1.667,3.432v3.132c0,.844.056.872,1.389.872h7.945c1.333,0,1.388-.028,1.388-.872V308.13c0-2.86-.055-3.268-1.694-3.432l-.528-.054c-.167-.109-.11-.6.056-.682,1.278.055,2.223.082,3.362.082,1.083,0,2.027-.027,3.278-.082.166.082.222.572.055.682l-.582.054c-1.611.164-1.667.572-1.667,3.432v9.8c0,2.86.056,3.213,1.667,3.4l.666.082c.167.109.11.6-.056.681-1.333-.054-2.278-.081-3.361-.081-1.139,0-2.14.027-3.362.081a.521.521,0,0,1-.056-.681l.528-.082c1.694-.272,1.694-.544,1.694-3.4v-3.841c0-.818-.055-.871-1.388-.871Z" transform="translate(-402.038 -265.735)" fill="#fff"/>
      <path id="Path_943" data-name="Path 943" d="M461.248,308.13c0-2.832-.055-3.241-1.694-3.432l-.445-.054c-.166-.109-.111-.6.056-.682,1.2.055,2.14.082,3.279.082h5.221c1.778,0,3.417,0,3.75-.082a30.235,30.235,0,0,1,.444,3.622.555.555,0,0,1-.694.055c-.417-1.28-.667-2.234-2.111-2.587a13.458,13.458,0,0,0-2.695-.164h-2c-.833,0-.833.056-.833,1.089v5.447c0,.763.084.763.917.763h1.611a10.482,10.482,0,0,0,2.361-.163c.333-.109.527-.272.666-.953l.222-1.116a.558.558,0,0,1,.723.027c0,.653-.111,1.715-.111,2.75,0,.98.111,2.016.111,2.614a.558.558,0,0,1-.723.027l-.249-1.062a1.172,1.172,0,0,0-.861-1.036,9.515,9.515,0,0,0-2.139-.135h-1.611c-.833,0-.917.026-.917.735v3.84c0,1.444.084,2.369.528,2.832.334.327.916.627,3.361.627,2.14,0,2.945-.109,3.555-.41a6.848,6.848,0,0,0,1.974-2.641.515.515,0,0,1,.693.191,23.385,23.385,0,0,1-1.25,3.785c-2.5-.054-4.972-.081-7.444-.081h-2.5c-1.2,0-2.14.027-3.779.081a.521.521,0,0,1-.055-.681l.916-.082c1.583-.136,1.722-.544,1.722-3.4Z" transform="translate(-404.693 -265.735)" fill="#fff"/>
      <path id="Path_944" data-name="Path 944" d="M485.756,308.158c0-2.588-.083-3.05-1.222-3.186l-.89-.109a.449.449,0,0,1,.028-.681c1.556-.137,3.472-.219,6.195-.219a10.012,10.012,0,0,1,4.639.818,4.052,4.052,0,0,1,2.3,3.813,5.056,5.056,0,0,1-3.473,4.548c-.138.163,0,.436.14.653,2.222,3.513,3.694,5.692,5.583,7.244a3.358,3.358,0,0,0,1.916.763.225.225,0,0,1,.028.38,4.391,4.391,0,0,1-1.223.137c-2.361,0-3.778-.681-5.749-3.432-.723-1.008-1.861-2.886-2.722-4.112a2,2,0,0,0-1.973-.871c-1.25,0-1.3.027-1.3.6v3.432c0,2.86.055,3.185,1.666,3.4l.584.082a.525.525,0,0,1-.057.681c-1.25-.054-2.194-.081-3.3-.081-1.167,0-2.167.027-3.473.081a.517.517,0,0,1-.055-.681l.693-.082c1.611-.191,1.667-.544,1.667-3.4Zm2.278,3.894a2.115,2.115,0,0,0,.083.9c.083.081.5.136,1.916.136a4.731,4.731,0,0,0,2.862-.708A3.875,3.875,0,0,0,494.283,309c0-2.152-1.361-4.194-4.444-4.194-1.722,0-1.8.109-1.8.871Z" transform="translate(-406.862 -265.735)" fill="#fff"/>
      <path id="Path_945" data-name="Path 945" d="M519.3,314.748c.639,1.279,1.25,2.532,1.916,3.731h.056c.75-1.281,1.444-2.7,2.139-4.086l2.611-5.2c1.25-2.478,2.056-3.977,2.112-5.229.943.082,1.527.082,2.082.082.694,0,1.611-.027,2.473-.082a.566.566,0,0,1,.027.682l-.584.054c-1.75.164-1.972.682-1.945,2.588.057,2.887.084,7.925.306,11.846.084,1.362.056,2.1,1.362,2.206l.888.082a.5.5,0,0,1-.055.681c-1.139-.054-2.277-.081-3.279-.081-.972,0-2.222.027-3.361.081a.5.5,0,0,1-.056-.681l.806-.082c1.361-.136,1.361-.572,1.361-2.315l-.084-11.356h-.056c-.193.3-1.25,2.478-1.8,3.54l-2.473,4.766c-1.249,2.4-2.5,4.957-3,6.208a.326.326,0,0,1-.278.109.34.34,0,0,1-.249-.109c-.473-1.443-1.807-4.112-2.445-5.447l-2.5-5.255c-.584-1.253-1.167-2.67-1.777-3.922h-.056c-.111,1.687-.2,3.268-.278,4.847-.083,1.662-.194,4.085-.194,6.4,0,2.015.167,2.451,1.25,2.532l1.056.082c.194.163.166.6-.027.681-.945-.054-2.028-.081-3.083-.081-.89,0-1.89.027-2.834.081a.53.53,0,0,1-.055-.681l.611-.082c1.166-.162,1.555-.327,1.721-2.233.167-1.8.306-3.295.473-5.991.139-2.26.25-4.575.306-6.073.055-1.715-.167-2.124-1.861-2.342l-.445-.054a.5.5,0,0,1,.111-.682c.834.055,1.5.082,2.195.082.639,0,1.389,0,2.3-.082-.11,1.062.584,2.751,1.444,4.494Z" transform="translate(-409.128 -265.735)" fill="#fff"/>
      <path id="Path_946" data-name="Path 946" d="M552.92,315.668c-.194-.6-.306-.682-1.139-.682h-4.195c-.694,0-.861.081-1.056.653l-.973,2.86a10.251,10.251,0,0,0-.61,2.261c0,.326.139.49.806.544l.916.082a.433.433,0,0,1-.055.681c-.723-.054-1.584-.054-2.889-.081-.917,0-1.917.054-2.666.081a.528.528,0,0,1-.057-.681l.917-.082a1.839,1.839,0,0,0,1.666-1.334c.5-1.254,1.278-3.023,2.445-6.073l2.833-7.353a3.851,3.851,0,0,0,.473-1.934,3.121,3.121,0,0,0,1.444-1.035.393.393,0,0,1,.416.245c.362,1.2.806,2.452,1.223,3.649l3.8,10.948c.806,2.343,1.167,2.751,2.362,2.887l.75.082a.526.526,0,0,1,0,.681c-1.139-.054-2.111-.081-3.362-.081-1.333,0-2.389.054-3.195.081a.451.451,0,0,1-.055-.681l.806-.082c.582-.054.972-.218.972-.49a5.511,5.511,0,0,0-.36-1.444Zm-5.5-2.425c-.222.627-.194.654.584.654h3.416c.806,0,.861-.109.61-.844l-1.5-4.439a17.726,17.726,0,0,0-.64-1.715h-.055a16.278,16.278,0,0,0-.667,1.607Z" transform="translate(-411.905 -265.701)" fill="#fff"/>
      <path id="Path_947" data-name="Path 947" d="M569.766,308.13c0-2.832-.056-3.241-1.694-3.432l-.444-.054c-.167-.109-.111-.6.056-.682,1.194.055,2.138.082,3.277.082h5.223c1.778,0,3.416,0,3.749-.082a30,30,0,0,1,.445,3.622.556.556,0,0,1-.7.055c-.416-1.28-.667-2.234-2.111-2.587a13.437,13.437,0,0,0-2.694-.164h-2c-.833,0-.833.056-.833,1.089v5.447c0,.763.084.763.917.763h1.61a10.461,10.461,0,0,0,2.361-.163c.334-.109.528-.272.667-.953l.223-1.116a.557.557,0,0,1,.722.027c0,.653-.11,1.715-.11,2.75,0,.98.11,2.016.11,2.614a.556.556,0,0,1-.722.027l-.251-1.062a1.17,1.17,0,0,0-.86-1.036,9.515,9.515,0,0,0-2.139-.135h-1.61c-.833,0-.917.026-.917.735v3.84c0,1.444.084,2.369.527,2.832.333.327.917.627,3.362.627,2.138,0,2.944-.109,3.555-.41a6.84,6.84,0,0,0,1.972-2.641.516.516,0,0,1,.7.191,23.571,23.571,0,0,1-1.25,3.785c-2.5-.054-4.972-.081-7.444-.081h-2.5c-1.193,0-2.138.027-3.777.081a.521.521,0,0,1-.056-.681l.916-.082c1.583-.136,1.723-.544,1.723-3.4Z" transform="translate(-414.191 -265.735)" fill="#fff"/>
    </g>
    <g id="Group_140" data-name="Group 140" transform="translate(389.536 334.387)">
      <path id="Path_948" data-name="Path 948" d="M411.135,356.142a10.974,10.974,0,0,1-4.181,4.843,1.329,1.329,0,0,1-.582.259.251.251,0,0,1-.249-.28c0-.066.02-.2.228-.346a11.79,11.79,0,0,0,3.848-5.125,14.688,14.688,0,0,0,1.082-5.189c0-.411,0-.735-.208-.865a1.877,1.877,0,0,0-.894-.238c-.125,0-.187-.064-.187-.151a.492.492,0,0,1,.249-.367,1.218,1.218,0,0,1,.666-.173,3.623,3.623,0,0,1,1.414.259c.333.13.457.3.457.584a1.846,1.846,0,0,1-.124.411,5.108,5.108,0,0,0-.084.714,24.176,24.176,0,0,0,4.119-3.546c.146-.151.1-.281-.167-.281-.228,0-2.5.151-4.43.368-1.477.173-3.141.346-4.514.6a3.931,3.931,0,0,0-1.144.325.841.841,0,0,1-.582.172,2.533,2.533,0,0,1-1.414-.995,1.866,1.866,0,0,1-.479-1.037c0-.194.063-.411.188-.411s.208.108.353.259a1.971,1.971,0,0,0,1.435.693q.687,0,1.934-.13c3.121-.3,5.013-.475,7.884-.692.624-.044.769-.087.936-.26a.548.548,0,0,1,.354-.172,2.38,2.38,0,0,1,1.164.692,1.86,1.86,0,0,1,.707,1.1c0,.261-.207.433-.5.476a2.071,2.071,0,0,0-1.144.454,37.2,37.2,0,0,1-4.784,3.157A15.28,15.28,0,0,1,411.135,356.142Z" transform="translate(-403.958 -343.147)" fill="#fff"/>
      <path id="Path_949" data-name="Path 949" d="M431.9,350.712c0-.13.084-.216.312-.216a5.429,5.429,0,0,1,1.955.5c.9.412,1.476.909,1.476,1.535s-.332.865-.728.865c-.269,0-.561-.259-.81-.627a5.716,5.716,0,0,0-2-1.751A.35.35,0,0,1,431.9,350.712Zm3.786,7.178a42.315,42.315,0,0,0,6.115-4.173,41.457,41.457,0,0,0,4.327-4.044c.208-.238.353-.411.437-.411a.336.336,0,0,1,.312.282c0,.086-.022.151-.229.453a25.923,25.923,0,0,1-4.368,4.714,50.745,50.745,0,0,1-5.991,4.5,1.3,1.3,0,0,0-.416.411.853.853,0,0,1-.623.433c-.334,0-.79-.368-1.228-.843a2.6,2.6,0,0,1-.79-1.621c0-.3.042-.562.208-.562.125,0,.228.108.354.324.208.346.728.864,1.04.864A1.661,1.661,0,0,0,435.688,357.891ZM434.5,346.3c0-.13.084-.216.312-.216a5.2,5.2,0,0,1,2.018.692c.853.5,1.247.952,1.247,1.557a.772.772,0,0,1-.748.822.846.846,0,0,1-.645-.454,7.441,7.441,0,0,0-2.017-2.141A.322.322,0,0,1,434.5,346.3Z" transform="translate(-406.404 -343.209)" fill="#fff"/>
      <path id="Path_950" data-name="Path 950" d="M472.055,356.426a3.322,3.322,0,0,1,.977,1.708c0,.563-.311.8-.6.8-.353,0-.582-.151-.874-.584a14.071,14.071,0,0,0-5.179-4.757,22.844,22.844,0,0,1-7.863,5.751,1.442,1.442,0,0,1-.561.173.236.236,0,0,1-.25-.216.268.268,0,0,1,.166-.281,28.557,28.557,0,0,0,6.927-5.384,25.421,25.421,0,0,0,3.765-5.3c.083-.151.1-.194.1-.238s-.062-.043-.1-.043a49.728,49.728,0,0,0-5.721.822,1.955,1.955,0,0,0-.706.237.865.865,0,0,1-.52.152c-.374,0-.811-.238-1.435-.909a1.883,1.883,0,0,1-.52-1.145c0-.217.1-.325.187-.325.1,0,.187.087.27.173a2.379,2.379,0,0,0,1.56.821c.229,0,1.1-.087,1.581-.13,1.58-.172,3.39-.367,4.763-.518a1.449,1.449,0,0,0,.811-.368.655.655,0,0,1,.4-.238,1.9,1.9,0,0,1,1.019.5c.374.28.581.5.581.821,0,.216-.207.346-.519.475a1.015,1.015,0,0,0-.645.584,39.629,39.629,0,0,1-2.808,4.065A15.969,15.969,0,0,1,472.055,356.426Zm-1.29-12.13a5.011,5.011,0,0,1,1.54.865,2.241,2.241,0,0,1,.893,1.406c0,.388-.208.626-.519.626-.292,0-.416-.172-.686-.713a6.164,6.164,0,0,0-1.54-1.752.3.3,0,0,1-.124-.216.236.236,0,0,1,.228-.238A.671.671,0,0,1,470.765,344.3Zm1.872-1.3a5.223,5.223,0,0,1,1.477.714,2.014,2.014,0,0,1,.935,1.383.534.534,0,0,1-.478.584c-.25,0-.4-.087-.686-.584a5.333,5.333,0,0,0-1.705-1.73.282.282,0,0,1-.084-.216.213.213,0,0,1,.209-.216A1.405,1.405,0,0,1,472.637,343Z" transform="translate(-408.662 -342.933)" fill="#fff"/>
      <path id="Path_951" data-name="Path 951" d="M495.885,345.092a2.182,2.182,0,0,0-1.04-.519c-.166-.043-.27-.108-.27-.28,0-.217.4-.411.769-.411a4.688,4.688,0,0,1,1.477.432c.562.259,1.019.562,1.019.995a.636.636,0,0,1-.188.432c-.124.13-.207.347-.228,1.082-.041,2.184-.041,4.065-.208,5.665a10.136,10.136,0,0,1-1.456,4.649,10.924,10.924,0,0,1-6.282,4.325,2.551,2.551,0,0,1-.394.064.282.282,0,0,1-.292-.259.276.276,0,0,1,.208-.28,11.573,11.573,0,0,0,5.97-4.758,10.863,10.863,0,0,0,1.082-4.3c.124-1.664.124-3.611.1-5.773C496.156,345.5,496.114,345.352,495.885,345.092Zm-5.366,1.255a1.708,1.708,0,0,0-.812-.628c-.207-.087-.27-.108-.27-.238,0-.215.333-.389.5-.389a2.867,2.867,0,0,1,1.456.584c.541.368.873.627.873.995a.612.612,0,0,1-.207.432c-.1.109-.188.324-.208.952-.042,1.3-.062,3.459-.062,6.032,0,.714-.229.887-.479.887-.271,0-.437-.173-.624-.52a2.368,2.368,0,0,1-.25-1.059,1.76,1.76,0,0,1,.084-.561,2.688,2.688,0,0,0,.1-.649c.063-1.752.084-3.266.084-4.649C490.705,346.778,490.684,346.584,490.518,346.346Z" transform="translate(-411.383 -343.016)" fill="#fff"/>
      <path id="Path_952" data-name="Path 952" d="M516.513,351.444a3.163,3.163,0,0,0-1.081.3.935.935,0,0,1-.521.151,2.025,2.025,0,0,1-1.206-.649,1.844,1.844,0,0,1-.686-1.08c0-.26.083-.369.167-.369a.336.336,0,0,1,.187.087,2.384,2.384,0,0,0,1.414.714,9.009,9.009,0,0,0,1.019-.065c1.726-.194,3.162-.324,5.1-.5,1.684-.151,3.016-.259,4.681-.411a2.023,2.023,0,0,0,.893-.216,1.037,1.037,0,0,1,.562-.216,3.274,3.274,0,0,1,1.394.453c.353.217.5.412.5.693a.424.424,0,0,1-.478.454c-.478,0-.915-.086-1.5-.108-.706-.021-1.455-.021-2.163,0-1,.022-2.185.087-3.141.151.561.346.935.714.935.974a.542.542,0,0,1-.124.345,1.117,1.117,0,0,0-.25.454,13.741,13.741,0,0,1-2.143,4.714,14.113,14.113,0,0,1-4.015,3.784.768.768,0,0,1-.394.13.257.257,0,0,1-.229-.261c0-.129.041-.194.207-.324a15.45,15.45,0,0,0,3.495-3.956,14.644,14.644,0,0,0,1.768-4.281,2.352,2.352,0,0,0,.083-.649,1.2,1.2,0,0,0-.353-.843C519.279,351.034,517.8,351.206,516.513,351.444Zm3.162-5.535c.894-.087,1.955-.216,2.85-.368a4.865,4.865,0,0,0,1.164-.281,1.939,1.939,0,0,1,.75-.194,1.7,1.7,0,0,1,.915.216c.353.237.457.411.457.649,0,.3-.228.453-.624.5-1.768.173-3.932.346-5.886.5a13.055,13.055,0,0,1-1.331.087,1.8,1.8,0,0,1-1.353-.5c-.457-.39-.748-.735-.748-1.038,0-.151.1-.3.229-.3.1,0,.145.065.27.173a2.464,2.464,0,0,0,1.58.649C518.51,346,519.341,345.931,519.674,345.909Z" transform="translate(-413.504 -343.12)" fill="#fff"/>
      <path id="Path_953" data-name="Path 953" d="M544.031,349.823a2.939,2.939,0,0,0-.707-.453c-.187-.087-.27-.13-.27-.259,0-.151.207-.325.478-.325a3.252,3.252,0,0,1,1.663.67c.375.26.811.671.811,1.1a.6.6,0,0,1-.249.475,1.365,1.365,0,0,0-.374.778,14.441,14.441,0,0,1-2.018,4.259,12.911,12.911,0,0,1-3.35,3.352.633.633,0,0,1-.333.13c-.1,0-.249-.065-.249-.173a.324.324,0,0,1,.145-.3,14.343,14.343,0,0,0,2.85-3.5,15.123,15.123,0,0,0,1.643-3.871,5.821,5.821,0,0,0,.209-1.233A.745.745,0,0,0,544.031,349.823Zm3.807-1.686c-.125-.324-.458-.519-1.019-.757-.1-.043-.187-.087-.187-.194,0-.172.27-.39.623-.39a3.193,3.193,0,0,1,1.5.584c.457.282.79.562.79.931a.739.739,0,0,1-.229.5,1.374,1.374,0,0,0-.187.778c-.062,2.1-.125,4.28-.125,6.746,0,.109.021.173.1.173a.691.691,0,0,0,.27-.088,31.83,31.83,0,0,0,7.406-4.842c.1-.087.165-.151.27-.151a.291.291,0,0,1,.27.259.4.4,0,0,1-.1.238,28.487,28.487,0,0,1-7.26,5.817,1.1,1.1,0,0,0-.436.453.468.468,0,0,1-.416.281c-.25,0-.625-.368-.853-.627a1.656,1.656,0,0,1-.5-.93,1.124,1.124,0,0,1,.1-.347,1.683,1.683,0,0,0,.083-.583c.022-2.12.022-4.628.022-6.488A3.824,3.824,0,0,0,547.838,348.136Z" transform="translate(-415.816 -343.271)" fill="#fff"/>
      <path id="Path_954" data-name="Path 954" d="M578.472,347.295a2.664,2.664,0,0,0,.271-1.037c0-.39-.354-.714-1.206-1.081-.167-.065-.25-.109-.25-.216,0-.173.228-.368.644-.368a3.493,3.493,0,0,1,1.769.649c.644.453,1.039.822,1.039,1.254a.614.614,0,0,1-.416.562,1.913,1.913,0,0,0-.6.822c-.624,1.276-1.269,2.529-2.079,4a12.009,12.009,0,0,1,1.663,1.642,2.593,2.593,0,0,1,.77,1.622.659.659,0,0,1-.645.714c-.229,0-.437-.108-.708-.562a12.271,12.271,0,0,0-1.746-2.336,23.4,23.4,0,0,1-8.341,7.784.761.761,0,0,1-.416.109c-.125,0-.271-.043-.271-.281a.369.369,0,0,1,.187-.282,24.877,24.877,0,0,0,7.925-8.151,23.274,23.274,0,0,0-3.14-2.162c-.25-.151-.313-.238-.313-.369a.222.222,0,0,1,.251-.215,1.721,1.721,0,0,1,.436.108,20.625,20.625,0,0,1,3.369,1.664A40.5,40.5,0,0,0,578.472,347.295Z" transform="translate(-418.312 -343.078)" fill="#fff"/>
    </g>
  </g>
</svg>
